<svg width="14" height="14" viewBox="0 0 14 14" fill="none" xmlns="http://www.w3.org/2000/svg">
<path d="M0 1.3125C0 1.07088 0.195875 0.875 0.4375 0.875H1.75C1.95075 0.875 2.12575 1.01163 2.17444 1.20639L2.52909 2.625H12.6875C12.8186 2.625 12.9427 2.68377 13.0258 2.78513C13.1089 2.88649 13.1422 3.01977 13.1165 3.1483L12.2415 7.5233C12.2022 7.71975 12.0345 7.86441 11.8344 7.87445L3.61219 8.28685L3.86309 9.625H11.375C11.6166 9.625 11.8125 9.82088 11.8125 10.0625C11.8125 10.3041 11.6166 10.5 11.375 10.5H10.5H4.375H3.5C3.28947 10.5 3.10879 10.3501 3.06999 10.1431L1.7599 3.15595L1.40841 1.75H0.4375C0.195875 1.75 0 1.55412 0 1.3125ZM2.71466 3.5L3.44945 7.41891L11.4503 7.01762L12.1538 3.5H2.71466ZM4.375 10.5C3.4085 10.5 2.625 11.2835 2.625 12.25C2.625 13.2165 3.4085 14 4.375 14C5.3415 14 6.125 13.2165 6.125 12.25C6.125 11.2835 5.3415 10.5 4.375 10.5ZM10.5 10.5C9.5335 10.5 8.75 11.2835 8.75 12.25C8.75 13.2165 9.5335 14 10.5 14C11.4665 14 12.25 13.2165 12.25 12.25C12.25 11.2835 11.4665 10.5 10.5 10.5ZM4.375 11.375C4.85825 11.375 5.25 11.7668 5.25 12.25C5.25 12.7332 4.85825 13.125 4.375 13.125C3.89175 13.125 3.5 12.7332 3.5 12.25C3.5 11.7668 3.89175 11.375 4.375 11.375ZM10.5 11.375C10.9832 11.375 11.375 11.7668 11.375 12.25C11.375 12.7332 10.9832 13.125 10.5 13.125C10.0168 13.125 9.625 12.7332 9.625 12.25C9.625 11.7668 10.0168 11.375 10.5 11.375Z" fill="#F7D4CD"/>
</svg>
