<?xml version="1.0" standalone="no"?>
<!DOCTYPE svg PUBLIC "-//W3C//DTD SVG 20010904//EN"
 "http://www.w3.org/TR/2001/REC-SVG-20010904/DTD/svg10.dtd">
<svg version="1.0" xmlns="http://www.w3.org/2000/svg"
 width="4824.000000pt" height="1264.000000pt" viewBox="0 0 4824.000000 1264.000000"
 preserveAspectRatio="xMidYMid meet">

<g transform="translate(0.000000,1264.000000) scale(0.100000,-0.100000)"
fill="#044A7F" stroke="none">
<path d="M29660 11200 c0 -5 -22 -10 -50 -10 -27 0 -50 -4 -50 -10 0 -5 -8
-10 -17 -10 -10 0 -27 -7 -37 -15 -11 -8 -28 -15 -38 -15 -10 0 -18 -4 -18
-10 0 -5 -11 -10 -25 -10 -14 0 -25 -4 -25 -10 0 -5 -9 -10 -20 -10 -11 0 -20
-4 -20 -10 0 -5 -9 -10 -20 -10 -11 0 -20 -4 -20 -10 0 -5 -11 -10 -25 -10
-14 0 -25 -4 -25 -8 0 -5 -19 -16 -42 -26 -24 -9 -51 -21 -60 -27 -10 -5 -25
-9 -33 -9 -8 0 -15 -4 -15 -10 0 -5 -11 -10 -25 -10 -14 0 -25 -4 -25 -10 0
-5 -7 -10 -15 -10 -18 0 -89 -32 -93 -42 -2 -5 -17 -8 -33 -8 -16 0 -29 -4
-29 -10 0 -5 -13 -10 -30 -10 -16 0 -30 -4 -30 -10 0 -5 -11 -10 -25 -10 -14
0 -25 -4 -25 -10 0 -5 -10 -10 -22 -10 -13 0 -43 -11 -67 -25 -23 -14 -49 -25
-57 -25 -8 0 -14 -4 -14 -10 0 -5 -7 -10 -16 -10 -57 0 -121 -172 -79 -214 8
-8 15 -20 15 -26 0 -15 17 -32 58 -55 17 -11 32 -23 32 -27 0 -4 9 -8 20 -8
11 0 20 -4 20 -10 0 -5 9 -10 20 -10 21 0 55 -16 78 -37 7 -7 18 -13 23 -13
13 0 99 -87 99 -99 0 -6 5 -11 10 -11 6 0 10 -9 10 -19 0 -11 6 -21 13 -24 9
-3 12 -417 12 -2027 0 -1610 -3 -2024 -12 -2028 -8 -2 -13 -20 -13 -43 0 -21
-4 -39 -10 -39 -5 0 -10 -8 -10 -19 0 -10 -11 -35 -25 -55 -14 -20 -25 -40
-25 -44 0 -4 -9 -14 -20 -22 -11 -8 -20 -20 -20 -28 0 -15 -94 -112 -110 -112
-5 0 -29 -18 -52 -40 -24 -22 -50 -42 -58 -45 -16 -5 -61 -87 -81 -145 -9 -29
-8 -44 5 -85 15 -43 34 -67 90 -112 8 -7 40 -13 71 -13 30 0 55 -4 55 -10 0
-6 33 -10 80 -10 47 0 80 4 80 10 0 7 182 10 525 10 343 0 525 -3 525 -10 0
-6 30 -10 70 -10 40 0 70 4 70 10 0 6 28 10 65 10 38 0 72 5 81 13 79 64 104
105 104 170 0 78 -30 126 -124 197 -21 17 -42 30 -46 30 -4 0 -21 12 -38 28
-17 15 -46 41 -66 57 -20 17 -36 34 -36 39 0 5 -8 16 -18 25 -25 23 -52 67
-52 86 0 8 -4 15 -10 15 -5 0 -10 11 -10 25 0 14 -4 25 -10 25 -6 0 -10 35
-10 85 0 50 -4 85 -10 85 -7 0 -10 627 -10 1860 0 1233 3 1860 10 1860 6 0 10
133 10 380 0 247 4 380 10 380 6 0 10 60 10 160 0 100 -4 160 -10 160 -5 0
-10 14 -10 30 0 17 -4 30 -10 30 -5 0 -10 6 -10 13 0 16 -42 57 -58 57 -7 0
-12 5 -12 10 0 6 -16 10 -35 10 -19 0 -35 5 -35 10 0 6 -20 10 -45 10 -25 0
-45 -4 -45 -10z"/>
<path d="M32420 11200 c0 -5 -25 -10 -55 -10 -30 0 -55 -4 -55 -10 0 -5 -6
-10 -12 -10 -7 0 -38 -12 -68 -27 -30 -14 -63 -30 -72 -35 -10 -4 -25 -8 -33
-8 -8 0 -15 -4 -15 -10 0 -5 -9 -10 -19 -10 -11 0 -23 -4 -26 -10 -3 -5 -15
-10 -26 -10 -10 0 -19 -4 -19 -8 0 -11 -66 -42 -90 -42 -11 0 -20 -4 -20 -10
0 -5 -9 -10 -20 -10 -11 0 -20 -4 -20 -10 0 -5 -7 -10 -15 -10 -8 0 -23 -4
-33 -9 -9 -5 -38 -18 -64 -28 -27 -10 -48 -21 -48 -25 0 -5 -13 -8 -30 -8 -16
0 -30 -4 -30 -10 0 -5 -13 -10 -30 -10 -16 0 -30 -4 -30 -10 0 -5 -11 -10 -25
-10 -14 0 -25 -4 -25 -10 0 -5 -9 -10 -20 -10 -24 0 -90 -31 -90 -42 0 -4 -9
-8 -19 -8 -11 0 -23 -4 -26 -10 -3 -5 -13 -10 -22 -10 -32 0 -93 -97 -93 -148
0 -35 19 -92 30 -92 5 0 11 -8 14 -18 3 -9 22 -26 41 -36 19 -11 35 -23 35
-28 0 -4 9 -8 20 -8 11 0 20 -4 20 -10 0 -5 9 -10 20 -10 21 0 54 -16 77 -37
7 -6 22 -14 32 -18 11 -3 22 -12 25 -20 3 -8 12 -15 20 -15 8 0 18 -9 21 -20
3 -11 11 -20 16 -20 5 0 9 -7 9 -15 0 -8 5 -15 10 -15 6 0 10 -9 10 -20 0 -11
5 -20 10 -20 7 0 10 -685 10 -2035 0 -1350 -3 -2035 -10 -2035 -5 0 -10 -18
-10 -40 0 -22 -3 -40 -7 -40 -5 0 -16 -20 -26 -44 -10 -25 -32 -58 -48 -75
-16 -17 -29 -35 -29 -41 0 -13 -97 -110 -110 -110 -5 0 -29 -18 -52 -40 -24
-22 -46 -40 -50 -40 -5 0 -8 -5 -8 -10 0 -6 -14 -24 -30 -42 -17 -17 -33 -42
-35 -55 -3 -13 -7 -33 -10 -46 -2 -13 -1 -47 4 -77 9 -53 16 -63 88 -120 7 -6
37 -10 68 -10 30 0 55 -4 55 -10 0 -6 33 -10 80 -10 47 0 80 4 80 10 0 7 185
10 535 10 350 0 535 -3 535 -10 0 -6 27 -10 60 -10 33 0 60 4 60 10 0 6 28 10
65 10 68 0 76 3 129 56 52 53 56 61 56 124 0 48 -5 69 -27 102 -33 53 -36 56
-103 101 -75 50 -160 120 -160 131 0 3 -16 23 -35 43 -19 20 -35 43 -35 50 0
7 -4 13 -10 13 -5 0 -10 9 -10 20 0 11 -4 20 -10 20 -5 0 -10 16 -10 35 0 19
-4 35 -9 35 -5 0 -12 28 -16 63 -4 34 -8 906 -8 1937 -1 1784 6 2540 25 2540
4 0 8 97 8 215 0 137 -4 215 -10 215 -5 0 -10 9 -10 20 0 11 -4 20 -10 20 -5
0 -10 7 -10 15 0 8 -9 24 -20 35 -11 11 -27 20 -35 20 -8 0 -15 5 -15 10 0 6
-16 10 -35 10 -19 0 -35 5 -35 10 0 6 -18 10 -40 10 -22 0 -40 -4 -40 -10z"/>
<path d="M26760 11090 c0 -5 -21 -10 -48 -10 -26 0 -72 -9 -102 -21 -30 -11
-63 -23 -72 -26 -10 -3 -18 -9 -18 -14 0 -5 -9 -9 -20 -9 -11 0 -20 -4 -20
-10 0 -5 -9 -10 -20 -10 -11 0 -20 -4 -20 -10 0 -5 -5 -10 -11 -10 -6 0 -17
-6 -24 -12 -8 -7 -30 -26 -50 -43 -53 -43 -115 -102 -115 -110 0 -3 -10 -17
-22 -30 -38 -40 -48 -54 -48 -65 0 -5 -4 -10 -10 -10 -5 0 -10 -9 -10 -19 0
-11 -4 -21 -8 -23 -15 -6 -62 -100 -62 -124 0 -13 -4 -24 -10 -24 -5 0 -10
-16 -10 -35 0 -19 -4 -35 -10 -35 -6 0 -10 -47 -10 -120 0 -73 4 -120 10 -120
6 0 10 -16 10 -35 0 -19 5 -35 10 -35 6 0 10 -7 10 -16 0 -8 6 -21 13 -29 6
-7 21 -25 31 -40 36 -48 53 -65 69 -65 8 0 17 -3 19 -7 6 -16 105 -56 158 -65
106 -17 167 -21 174 -9 4 6 27 11 52 11 43 0 130 21 166 41 10 5 29 9 43 9 14
0 25 5 25 10 0 6 9 10 20 10 11 0 20 5 20 10 0 6 11 10 25 10 14 0 25 3 25 8
0 4 16 16 35 26 19 11 35 23 35 28 0 4 7 8 16 8 17 0 194 174 194 190 0 5 11
20 25 34 14 14 25 34 25 46 0 11 5 20 10 20 6 0 10 11 10 25 0 14 5 25 10 25
6 0 10 10 10 23 0 13 5 28 12 35 8 8 12 56 12 154 0 102 -3 143 -12 146 -7 2
-12 15 -12 28 0 13 -4 24 -10 24 -5 0 -10 9 -10 20 0 11 -4 20 -10 20 -5 0
-10 6 -10 14 0 15 -114 136 -129 136 -14 0 -71 34 -71 43 0 4 -13 7 -30 7 -16
0 -30 5 -30 10 0 6 -27 10 -60 10 -33 0 -60 4 -60 10 0 6 -25 10 -55 10 -30 0
-55 -4 -55 -10z"/>
<path d="M40510 9460 c0 -6 -43 -10 -110 -10 -67 0 -110 -4 -110 -10 0 -6 -28
-10 -65 -10 -36 0 -65 -4 -65 -9 0 -5 -21 -11 -47 -14 -44 -4 -153 -37 -195
-58 -10 -5 -27 -9 -38 -9 -11 0 -20 -4 -20 -10 0 -5 -11 -10 -25 -10 -14 0
-25 -4 -25 -10 0 -5 -11 -10 -25 -10 -14 0 -25 -4 -25 -9 0 -5 -20 -17 -45
-28 -25 -10 -45 -21 -45 -25 0 -5 -9 -8 -20 -8 -11 0 -20 -4 -20 -10 0 -5 -9
-10 -20 -10 -11 0 -20 -3 -20 -7 0 -5 -21 -21 -45 -38 -25 -16 -45 -33 -45
-37 0 -5 -4 -8 -10 -8 -21 0 -210 -185 -210 -206 0 -4 -8 -14 -18 -23 -10 -9
-27 -31 -37 -48 -11 -18 -23 -33 -27 -33 -4 0 -8 -9 -8 -20 0 -11 -4 -20 -10
-20 -5 0 -10 -9 -10 -20 0 -11 -4 -20 -10 -20 -5 0 -10 -11 -10 -25 0 -14 -4
-25 -10 -25 -5 0 -10 -8 -10 -17 0 -10 -7 -27 -15 -37 -8 -11 -15 -32 -15 -48
0 -15 -4 -28 -10 -28 -5 0 -10 -16 -10 -35 0 -19 -4 -35 -10 -35 -6 0 -10 -87
-10 -240 0 -153 4 -240 10 -240 6 0 10 -13 10 -29 0 -17 4 -32 9 -35 5 -4 12
-24 16 -46 4 -22 11 -42 16 -46 5 -3 9 -14 9 -25 0 -10 5 -19 10 -19 6 0 10
-9 10 -20 0 -11 5 -20 10 -20 6 0 10 -9 10 -20 0 -11 5 -20 10 -20 6 0 10 -7
10 -15 0 -8 4 -15 9 -15 5 0 12 -8 16 -19 3 -10 19 -33 35 -50 17 -17 30 -36
30 -42 0 -11 24 -39 34 -39 4 0 22 -15 40 -32 54 -52 85 -78 91 -78 7 0 24
-14 60 -47 13 -13 31 -23 40 -23 8 0 15 -4 15 -10 0 -5 7 -10 15 -10 8 0 15
-4 15 -10 0 -5 9 -10 20 -10 11 0 20 -3 20 -7 0 -5 20 -17 45 -28 25 -11 45
-23 45 -27 0 -5 9 -8 20 -8 11 0 20 -4 20 -10 0 -5 11 -10 25 -10 14 0 25 -4
25 -10 0 -5 9 -10 20 -10 11 0 20 -4 20 -10 0 -5 8 -10 18 -10 10 0 27 -7 38
-15 10 -8 27 -15 37 -15 9 0 17 -4 17 -10 0 -5 11 -10 25 -10 14 0 25 -4 25
-10 0 -5 14 -10 30 -10 17 0 30 -4 30 -10 0 -5 11 -10 25 -10 14 0 25 -4 25
-8 0 -4 29 -17 65 -27 36 -11 65 -23 65 -27 0 -5 9 -8 20 -8 11 0 20 -4 20
-10 0 -5 16 -10 35 -10 19 0 35 -4 35 -10 0 -5 8 -10 18 -10 10 0 42 -11 70
-25 29 -14 58 -25 66 -25 8 0 18 -4 21 -10 3 -5 15 -10 26 -10 10 0 19 -4 19
-10 0 -5 14 -10 30 -10 17 0 30 -4 30 -10 0 -5 8 -10 19 -10 22 0 175 -69 179
-81 2 -5 15 -9 28 -9 13 0 24 -4 24 -10 0 -5 7 -10 15 -10 9 0 27 -11 41 -25
14 -14 29 -25 35 -25 17 0 169 -156 169 -174 0 -9 5 -16 10 -16 6 0 10 -15 10
-34 0 -19 6 -36 13 -39 17 -5 16 -259 -1 -265 -7 -2 -12 -17 -12 -33 0 -16 -4
-29 -10 -29 -5 0 -10 -11 -10 -25 0 -14 -4 -25 -10 -25 -5 0 -10 -6 -10 -12 0
-7 -12 -26 -26 -43 -67 -79 -109 -115 -134 -115 -11 0 -20 -4 -20 -9 0 -5 -15
-14 -32 -21 -18 -6 -42 -17 -53 -23 -37 -20 -109 -30 -255 -34 -149 -5 -257 6
-318 33 -18 8 -44 14 -57 14 -13 0 -27 5 -30 10 -3 6 -19 10 -36 10 -16 0 -29
5 -29 10 0 6 -11 10 -25 10 -14 0 -25 5 -25 10 0 6 -9 10 -20 10 -11 0 -20 5
-20 10 0 6 -8 10 -19 10 -10 0 -24 7 -31 15 -7 8 -19 15 -26 15 -8 0 -14 5
-14 10 0 6 -9 10 -20 10 -11 0 -20 5 -20 10 0 6 -5 10 -10 10 -6 0 -21 10 -34
23 -13 12 -36 31 -51 42 -16 11 -34 26 -41 33 -7 6 -15 12 -18 12 -6 0 -156
148 -156 154 0 3 -20 25 -45 49 -25 25 -45 50 -45 56 0 6 -4 11 -10 11 -5 0
-10 7 -10 15 0 8 -4 15 -10 15 -5 0 -10 7 -10 15 0 8 -3 15 -7 15 -5 0 -21 20
-38 45 -16 24 -33 45 -37 45 -5 0 -8 7 -8 15 0 9 -10 26 -22 39 -13 12 -32 35
-43 50 -30 42 -52 66 -58 66 -3 0 -23 11 -43 25 -77 52 -173 21 -237 -77 -9
-15 -17 -34 -17 -43 0 -8 -4 -15 -10 -15 -6 0 -10 -78 -10 -215 0 -137 4 -215
10 -215 6 0 10 -18 10 -40 0 -21 4 -49 9 -62 5 -13 17 -51 27 -85 11 -35 22
-63 26 -63 5 0 8 -9 8 -20 0 -11 5 -20 10 -20 6 0 10 -11 10 -25 0 -14 4 -25
9 -25 5 0 12 -9 16 -19 9 -28 201 -221 219 -221 9 0 16 -4 16 -10 0 -5 6 -10
13 -10 7 0 19 -9 27 -20 8 -11 22 -20 31 -20 9 0 22 -7 29 -15 7 -8 19 -15 26
-15 8 0 14 -4 14 -10 0 -5 9 -10 20 -10 11 0 20 -4 20 -10 0 -5 11 -10 25 -10
14 0 25 -4 25 -10 0 -5 9 -10 19 -10 11 0 21 -3 23 -7 4 -10 159 -63 182 -63
9 0 16 -4 16 -10 0 -5 18 -10 40 -10 22 0 40 -4 40 -10 0 -5 20 -10 45 -10 25
0 45 -4 45 -9 0 -5 17 -11 38 -14 60 -7 184 -27 230 -38 23 -5 87 -9 142 -9
60 0 100 -4 100 -10 0 -6 37 -10 90 -10 53 0 90 4 90 10 0 6 38 10 95 10 52 0
114 4 137 10 43 9 138 26 211 37 20 3 37 9 37 14 0 5 16 9 35 9 19 0 35 5 35
10 0 6 18 10 40 10 22 0 40 5 40 10 0 6 8 10 18 10 10 0 40 11 68 23 27 13 64
30 82 38 17 8 32 17 32 21 0 5 14 8 30 8 17 0 30 5 30 10 0 6 5 10 11 10 6 0
17 6 24 13 35 31 45 37 60 37 8 0 15 5 15 10 0 6 6 10 13 10 7 0 19 9 27 20 8
11 19 20 25 20 15 0 225 204 225 219 0 6 4 11 8 11 4 0 21 22 37 50 17 27 33
50 38 50 4 0 7 9 7 19 0 11 3 21 8 23 13 6 82 166 82 193 0 14 5 25 10 25 6 0
10 16 10 35 0 19 4 35 9 35 11 0 24 147 23 270 0 128 -12 260 -23 260 -5 0 -9
20 -9 45 0 25 -4 45 -10 45 -5 0 -10 13 -10 29 0 17 -4 32 -9 36 -5 3 -12 19
-16 35 -4 17 -11 30 -16 30 -5 0 -9 9 -9 20 0 11 -4 20 -10 20 -5 0 -10 10
-10 23 0 12 -9 29 -20 37 -11 8 -20 22 -20 32 0 10 -4 18 -8 18 -4 0 -16 14
-26 31 -10 17 -40 54 -67 82 -27 28 -49 55 -49 59 0 4 -5 8 -11 8 -7 0 -19 8
-28 18 -9 10 -34 31 -56 47 -22 17 -47 38 -56 47 -9 10 -24 18 -33 18 -9 0
-16 5 -16 10 0 6 -7 10 -15 10 -8 0 -15 4 -15 9 0 5 -20 17 -45 28 -25 10 -45
21 -45 26 0 4 -9 7 -20 7 -11 0 -20 5 -20 10 0 6 -9 10 -20 10 -11 0 -20 3
-20 8 0 4 -20 15 -45 25 -25 11 -45 23 -45 28 0 5 -13 9 -30 9 -16 0 -30 5
-30 10 0 6 -11 10 -25 10 -14 0 -25 5 -25 10 0 6 -11 10 -25 10 -14 0 -25 5
-25 10 0 6 -13 10 -30 10 -16 0 -30 4 -30 10 0 5 -16 12 -35 16 -19 3 -35 10
-35 15 0 5 -13 9 -30 9 -16 0 -30 5 -30 10 0 6 -16 10 -35 10 -19 0 -35 5 -35
10 0 6 -13 10 -30 10 -16 0 -30 5 -30 10 0 6 -7 10 -16 10 -23 0 -178 53 -182
62 -2 5 -19 8 -38 8 -19 0 -34 5 -34 10 0 6 -11 10 -25 10 -14 0 -33 4 -43 9
-46 23 -95 41 -112 41 -11 0 -20 5 -20 10 0 6 -9 10 -20 10 -11 0 -20 5 -20
10 0 6 -13 10 -30 10 -16 0 -30 5 -30 10 0 6 -11 10 -25 10 -14 0 -25 4 -25 8
0 4 -29 21 -65 37 -36 16 -65 32 -65 37 0 4 -7 8 -15 8 -8 0 -15 5 -15 10 0 6
-7 10 -16 10 -15 0 -44 22 -44 34 0 8 -50 56 -59 56 -5 0 -14 14 -21 30 -7 17
-16 30 -21 30 -5 0 -9 11 -9 25 0 14 -4 25 -10 25 -5 0 -10 13 -10 29 0 17 -4
33 -10 36 -6 3 -10 48 -10 100 0 52 4 97 10 100 6 3 10 19 10 36 0 16 5 29 10
29 6 0 10 11 10 25 0 14 5 25 10 25 6 0 10 6 10 13 0 28 126 157 154 157 8 0
16 3 18 8 5 12 97 52 147 64 76 19 374 15 451 -5 36 -10 75 -20 88 -24 12 -3
22 -9 22 -14 0 -5 11 -9 25 -9 14 0 25 -4 25 -10 0 -5 14 -10 30 -10 17 0 30
-4 30 -8 0 -5 24 -22 53 -37 28 -16 59 -37 68 -47 9 -10 19 -18 23 -18 8 0 26
-14 71 -57 19 -18 37 -33 41 -33 9 0 94 -92 94 -102 0 -4 5 -8 11 -8 12 0 39
-25 39 -37 0 -5 9 -15 20 -23 11 -8 20 -20 20 -26 0 -7 16 -28 35 -47 19 -19
35 -40 35 -46 0 -6 5 -11 10 -11 6 0 10 -5 10 -11 0 -7 8 -19 18 -28 9 -9 30
-34 47 -56 32 -44 68 -80 110 -110 15 -11 33 -26 40 -32 21 -20 140 -17 173 4
41 27 72 60 72 78 0 8 4 15 9 15 24 0 40 180 30 334 -11 163 -19 216 -30 216
-5 0 -9 20 -9 45 0 25 -4 45 -10 45 -5 0 -10 11 -10 25 0 14 -3 25 -7 25 -5 0
-21 27 -38 60 -16 33 -33 60 -37 60 -4 0 -8 5 -8 10 0 16 -139 150 -155 150
-8 0 -15 5 -15 10 0 6 -7 10 -15 10 -8 0 -15 5 -15 10 0 6 -9 10 -19 10 -11 0
-21 3 -23 8 -5 12 -68 42 -89 42 -10 0 -19 5 -19 10 0 6 -11 10 -25 10 -14 0
-25 5 -25 10 0 6 -13 10 -30 10 -16 0 -30 5 -30 10 0 6 -9 10 -21 10 -25 0
-127 27 -151 40 -10 6 -38 10 -63 10 -25 0 -45 5 -45 10 0 6 -33 10 -80 10
-47 0 -80 4 -80 10 0 6 -46 10 -119 10 -69 0 -122 4 -126 10 -3 6 -44 10 -91
10 -49 0 -84 -4 -84 -10z"/>
<path d="M3740 9440 c0 -5 -25 -10 -55 -10 -30 0 -55 -4 -55 -10 0 -5 -14 -10
-31 -10 -17 0 -37 -6 -44 -14 -8 -7 -34 -20 -59 -27 -26 -7 -46 -17 -46 -21 0
-4 -11 -8 -25 -8 -14 0 -25 -4 -25 -10 0 -5 -9 -10 -20 -10 -11 0 -20 -4 -20
-10 0 -5 -9 -10 -20 -10 -11 0 -20 -4 -20 -8 0 -5 -16 -17 -35 -28 -19 -10
-35 -22 -35 -26 0 -5 -8 -8 -18 -8 -10 0 -24 -9 -32 -20 -8 -11 -18 -20 -23
-20 -9 0 -25 -13 -72 -57 -19 -18 -37 -33 -40 -33 -10 0 -185 -179 -185 -190
0 -5 -6 -10 -13 -10 -7 0 -21 -12 -32 -26 -10 -14 -27 -35 -38 -47 -10 -12
-28 -35 -40 -51 -12 -16 -30 -37 -39 -47 -10 -11 -18 -23 -18 -29 0 -5 -4 -10
-10 -10 -5 0 -10 -6 -10 -13 0 -7 -9 -19 -20 -27 -11 -8 -20 -19 -20 -25 0 -6
-11 -22 -25 -37 -14 -15 -25 -34 -25 -42 0 -8 -4 -16 -8 -18 -5 -1 -25 -28
-45 -58 -20 -30 -41 -60 -47 -67 -5 -7 -10 -17 -10 -23 0 -5 -4 -10 -10 -10
-5 0 -10 -9 -10 -20 0 -11 -4 -20 -10 -20 -5 0 -10 -4 -10 -10 0 -9 -39 -72
-60 -97 -5 -7 -10 -19 -10 -28 0 -8 -4 -15 -10 -15 -5 0 -10 -7 -10 -15 0 -8
-4 -15 -10 -15 -5 0 -10 -9 -10 -20 0 -11 -3 -20 -8 -20 -4 0 -16 -16 -26 -35
-11 -19 -23 -35 -28 -35 -4 0 -8 -9 -8 -20 0 -13 -7 -20 -20 -20 -18 0 -20 7
-20 75 0 43 4 75 10 75 6 0 10 20 10 45 0 25 4 45 9 45 5 0 11 21 14 48 6 55
19 114 42 197 10 33 19 86 22 118 3 31 9 57 14 57 5 0 9 20 9 45 0 25 4 45 9
45 5 0 12 26 15 58 3 31 9 86 15 122 19 134 33 297 28 345 -6 51 -26 105 -39
105 -5 0 -8 7 -8 15 0 8 -9 15 -20 15 -11 0 -20 5 -20 10 0 6 -47 10 -120 10
-73 0 -120 -4 -120 -10 0 -5 -12 -10 -27 -10 -16 0 -59 -12 -98 -25 -38 -14
-78 -25 -87 -25 -10 0 -18 -4 -18 -10 0 -5 -13 -10 -30 -10 -16 0 -30 -4 -30
-10 0 -5 -11 -10 -25 -10 -14 0 -25 -4 -25 -10 0 -5 -12 -10 -26 -10 -14 0
-32 -6 -39 -14 -8 -7 -34 -20 -59 -27 -26 -7 -46 -17 -46 -21 0 -4 -11 -8 -25
-8 -14 0 -25 -4 -25 -10 0 -5 -13 -10 -30 -10 -16 0 -30 -3 -30 -8 0 -4 -20
-16 -45 -27 -25 -11 -45 -23 -45 -27 0 -5 -9 -8 -20 -8 -11 0 -20 -4 -20 -10
0 -5 -7 -10 -15 -10 -8 0 -15 -4 -15 -10 0 -5 -7 -10 -15 -10 -9 0 -27 -11
-41 -25 -14 -14 -28 -25 -33 -25 -15 0 -81 -68 -81 -84 0 -9 -4 -16 -10 -16
-5 0 -10 -7 -10 -15 0 -8 -4 -15 -10 -15 -14 0 -13 -116 1 -142 22 -42 93 -98
124 -98 8 0 15 -4 15 -10 0 -5 9 -10 20 -10 21 0 90 -61 90 -80 0 -5 5 -10 10
-10 6 0 10 -13 10 -28 0 -15 5 -33 11 -39 16 -16 -4 -483 -22 -483 -5 0 -9
-29 -9 -65 0 -37 -4 -65 -10 -65 -5 0 -10 -26 -10 -57 0 -31 -4 -70 -9 -87 -5
-17 -15 -60 -21 -96 -6 -36 -15 -90 -21 -120 -6 -30 -13 -85 -16 -122 -2 -38
-9 -68 -14 -68 -5 0 -9 -25 -9 -55 0 -30 -4 -55 -9 -55 -5 0 -11 -21 -14 -47
-3 -27 -12 -84 -21 -128 -9 -44 -19 -101 -22 -127 -4 -27 -10 -48 -15 -48 -5
0 -9 -25 -9 -55 0 -30 -4 -55 -10 -55 -6 0 -10 -27 -10 -60 0 -33 -4 -60 -10
-60 -5 0 -10 -16 -10 -35 0 -19 -4 -44 -9 -57 -5 -13 -17 -69 -27 -125 -10
-57 -22 -103 -26 -103 -5 0 -8 -20 -8 -45 0 -25 -4 -45 -10 -45 -5 0 -10 -25
-10 -55 0 -30 -4 -55 -10 -55 -5 0 -10 -13 -10 -29 0 -17 -4 -32 -8 -35 -5 -3
-17 -45 -27 -93 -10 -48 -22 -92 -26 -98 -5 -5 -9 -24 -9 -42 0 -18 -4 -33
-10 -33 -5 0 -10 -25 -10 -55 0 -30 -4 -55 -9 -55 -19 0 -39 -226 -22 -243 6
-6 11 -17 11 -24 0 -19 46 -63 65 -63 8 0 15 -4 15 -10 0 -6 77 -10 210 -10
133 0 210 4 210 10 0 6 35 10 85 10 50 0 85 4 85 10 0 6 14 10 30 10 36 0 193
49 198 61 2 5 15 9 28 9 13 0 24 5 24 10 0 6 7 10 16 10 15 0 44 23 44 35 0 3
10 16 23 29 13 13 29 39 36 57 7 19 17 42 22 51 5 10 9 29 9 43 0 14 5 25 10
25 6 0 10 52 10 135 0 83 4 135 10 135 6 0 10 56 10 148 0 81 4 152 9 158 5 5
11 38 15 74 5 67 27 198 46 285 6 28 14 67 17 88 3 20 9 37 14 37 5 0 9 18 9
40 0 22 4 48 9 58 5 9 21 58 36 107 15 50 31 98 36 107 5 10 9 27 9 38 0 11 5
20 10 20 6 0 10 16 10 35 0 19 5 35 10 35 6 0 10 14 10 30 0 17 4 30 10 30 5
0 12 16 16 35 3 19 10 35 15 35 5 0 9 11 9 24 0 14 5 28 10 31 6 3 10 17 10
31 0 13 5 24 10 24 6 0 10 9 10 20 0 11 5 20 10 20 6 0 10 9 10 20 0 24 31 90
42 90 4 0 8 11 8 25 0 14 5 25 10 25 6 0 10 9 10 20 0 11 5 20 10 20 6 0 10
11 10 25 0 14 5 25 10 25 6 0 10 9 10 20 0 11 4 20 9 20 5 0 12 11 15 25 4 14
11 25 16 25 6 0 10 9 10 20 0 11 5 20 10 20 6 0 10 9 10 20 0 11 5 20 10 20 6
0 10 9 10 20 0 11 5 20 10 20 6 0 10 7 10 15 0 8 5 15 10 15 6 0 10 9 10 20 0
11 4 20 9 20 10 0 41 55 41 72 0 4 13 22 30 39 16 17 32 40 35 50 4 11 10 19
14 19 5 0 14 14 21 30 7 17 16 30 21 30 5 0 9 5 9 10 0 6 10 22 23 35 56 62
67 75 67 80 0 10 159 165 170 165 5 0 10 4 10 9 0 5 9 13 20 16 11 3 26 12 32
18 23 22 67 47 83 47 8 0 15 5 15 10 0 6 18 10 40 10 22 0 40 5 40 10 0 6 27
10 60 10 33 0 60 -4 60 -10 0 -5 18 -10 40 -10 22 0 40 -4 40 -10 0 -5 6 -10
14 -10 30 0 126 -111 126 -145 0 -8 5 -15 10 -15 6 0 10 -15 10 -34 0 -19 5
-36 12 -38 16 -6 15 -491 -1 -496 -7 -2 -11 -30 -11 -68 0 -36 -4 -64 -10 -64
-5 0 -10 -25 -10 -55 0 -30 -4 -55 -9 -55 -4 0 -11 -29 -14 -65 -4 -36 -11
-74 -17 -84 -5 -11 -10 -36 -10 -55 0 -20 -4 -36 -10 -36 -5 0 -10 -25 -10
-55 0 -30 -4 -55 -9 -55 -5 0 -11 -21 -14 -47 -3 -27 -10 -68 -16 -93 -5 -25
-17 -76 -26 -115 -9 -38 -19 -87 -22 -107 -3 -21 -9 -38 -14 -38 -5 0 -9 -18
-9 -40 0 -22 -4 -40 -10 -40 -5 0 -10 -22 -10 -49 0 -28 -4 -53 -10 -56 -5 -3
-10 -21 -10 -39 0 -17 -4 -36 -9 -42 -9 -9 -28 -86 -38 -156 -3 -21 -9 -38
-14 -38 -5 0 -9 -20 -9 -45 0 -25 -4 -45 -10 -45 -5 0 -10 -20 -10 -45 0 -25
-4 -45 -10 -45 -5 0 -10 -17 -10 -38 0 -21 -4 -42 -9 -47 -13 -15 -46 -143
-58 -227 -3 -21 -9 -38 -14 -38 -5 0 -9 -15 -9 -34 0 -19 -4 -38 -10 -41 -5
-3 -10 -24 -10 -46 0 -21 -4 -47 -9 -57 -26 -48 -41 -128 -41 -217 0 -89 2
-100 28 -136 20 -29 34 -39 55 -39 15 0 27 -4 27 -10 0 -6 73 -10 200 -10 127
0 200 4 200 10 0 6 35 10 85 10 50 0 85 4 85 10 0 6 20 10 45 10 25 0 45 5 45
10 0 6 8 10 17 10 27 0 133 34 133 42 0 4 7 8 15 8 8 0 15 5 15 10 0 6 7 10
16 10 21 0 94 73 94 94 0 9 3 16 8 16 7 0 21 30 40 90 15 49 47 360 59 578 2
45 8 82 13 82 4 0 10 26 13 58 3 31 10 77 15 102 6 25 20 90 32 145 12 55 25
104 31 109 5 6 9 27 9 48 0 21 5 38 10 38 6 0 10 16 10 35 0 19 5 35 10 35 6
0 10 16 10 35 0 19 4 35 8 35 4 0 16 34 27 75 10 41 22 75 27 75 4 0 8 11 8
25 0 14 5 25 10 25 6 0 10 10 10 23 0 23 18 77 36 112 6 11 16 39 24 63 7 23
17 42 22 42 4 0 8 9 8 20 0 11 5 20 10 20 6 0 10 16 10 35 0 19 5 35 10 35 6
0 10 7 10 16 0 8 6 22 14 29 7 8 20 34 27 59 7 26 17 46 21 46 4 0 8 9 8 20 0
11 5 20 10 20 6 0 10 9 10 19 0 11 5 23 10 26 6 3 10 15 10 26 0 10 3 19 8 19
10 0 42 58 42 76 0 8 5 14 10 14 6 0 10 9 10 20 0 11 5 20 10 20 6 0 10 7 10
15 0 8 5 15 10 15 6 0 10 9 10 20 0 11 4 20 8 20 5 0 17 18 28 40 10 22 22 40
27 40 4 0 7 7 7 15 0 8 5 15 10 15 6 0 10 9 10 20 0 11 5 20 10 20 6 0 10 5
10 10 0 11 10 25 48 65 12 13 22 29 22 35 0 6 6 17 13 24 6 7 26 30 42 51 17
21 36 44 43 51 6 7 12 15 12 19 0 7 47 55 54 55 7 0 56 49 56 56 0 12 29 34
44 34 9 0 16 4 16 8 0 4 15 16 33 27 17 10 41 27 51 37 11 10 28 18 38 18 10
0 18 5 18 10 0 6 20 10 45 10 25 0 45 5 45 10 0 6 27 10 60 10 33 0 60 -4 60
-10 0 -5 16 -10 35 -10 19 0 35 -4 35 -10 0 -5 7 -10 15 -10 21 0 90 -72 116
-121 36 -69 49 -110 49 -161 0 -27 5 -48 10 -48 6 0 10 -52 10 -135 0 -83 -4
-135 -10 -135 -6 0 -10 -32 -10 -75 0 -43 -4 -75 -10 -75 -5 0 -10 -13 -10
-28 0 -16 -10 -64 -21 -108 -12 -43 -24 -96 -26 -116 -3 -21 -9 -38 -14 -38
-5 0 -9 -16 -9 -35 0 -19 -4 -35 -10 -35 -5 0 -10 -18 -10 -40 0 -22 -4 -40
-10 -40 -5 0 -10 -13 -10 -30 0 -16 -6 -44 -14 -62 -21 -52 -36 -102 -36 -126
0 -12 -4 -22 -10 -22 -5 0 -10 -16 -10 -35 0 -19 -4 -35 -10 -35 -5 0 -10 -14
-10 -30 0 -17 -4 -38 -9 -48 -19 -37 -61 -183 -61 -212 0 -16 -4 -30 -10 -30
-5 0 -10 -18 -10 -40 0 -22 -4 -40 -10 -40 -5 0 -10 -18 -10 -40 0 -22 -4 -40
-9 -40 -5 0 -11 -21 -14 -47 -2 -27 -12 -75 -22 -108 -10 -33 -20 -90 -22
-127 -3 -38 -9 -68 -14 -68 -5 0 -9 -49 -9 -110 0 -67 -4 -110 -10 -110 -5 0
-10 -25 -10 -55 0 -30 5 -55 10 -55 6 0 10 -33 10 -80 0 -47 4 -80 10 -80 6 0
10 -20 10 -45 0 -25 5 -45 10 -45 6 0 10 -8 10 -18 0 -10 7 -27 15 -38 8 -10
15 -27 15 -36 0 -10 5 -18 10 -18 6 0 10 -8 10 -18 0 -10 9 -24 20 -32 11 -8
20 -19 20 -25 0 -12 86 -104 115 -123 11 -6 35 -20 53 -29 17 -9 32 -20 32
-25 0 -4 16 -8 35 -8 19 0 35 -4 35 -10 0 -5 13 -10 29 -10 16 0 31 -6 34 -12
3 -10 49 -13 187 -13 138 0 184 3 188 13 2 7 20 12 43 12 21 0 39 5 39 10 0 6
16 10 35 10 19 0 35 5 35 10 0 6 6 10 14 10 16 0 110 51 114 62 2 4 10 8 18 8
8 0 14 5 14 10 0 6 7 10 15 10 9 0 26 10 39 23 35 33 75 67 82 67 7 0 34 27
34 34 0 7 34 47 68 82 12 13 22 30 22 39 0 8 5 15 10 15 6 0 10 7 10 15 0 8 5
15 10 15 6 0 10 9 10 20 0 11 5 20 10 20 6 0 10 8 10 18 0 9 7 26 15 36 8 11
15 28 15 38 0 10 5 18 10 18 6 0 10 16 10 35 0 19 5 35 10 35 6 0 10 42 10
105 0 63 -4 105 -10 105 -5 0 -10 5 -10 11 0 19 -28 39 -55 39 -19 0 -43 -17
-86 -59 -32 -33 -59 -63 -59 -67 0 -7 -37 -43 -79 -76 -14 -13 -39 -18 -77
-18 -52 0 -59 3 -91 38 -19 20 -37 49 -40 65 -3 15 -10 30 -14 33 -12 7 -12
279 0 318 19 63 41 172 41 198 0 15 5 30 10 33 6 3 10 24 10 46 0 21 5 39 10
39 6 0 10 20 10 45 0 25 5 45 10 45 6 0 10 11 10 25 0 13 4 34 9 47 26 66 61
189 61 212 0 14 5 26 10 26 6 0 10 18 10 40 0 22 5 40 10 40 6 0 10 8 10 17 0
9 4 30 10 47 5 17 17 59 27 93 10 35 21 63 26 63 4 0 7 20 7 45 0 25 5 45 10
45 6 0 10 16 10 35 0 19 5 35 10 35 6 0 10 15 10 34 0 19 5 38 10 41 6 3 10
18 11 33 0 32 32 159 42 168 4 4 7 27 7 51 0 23 5 43 10 43 6 0 10 30 10 70 0
39 4 70 9 70 13 0 23 139 24 315 0 162 -10 295 -24 295 -5 0 -9 25 -9 55 0 30
-4 55 -10 55 -5 0 -10 8 -10 18 0 10 -11 40 -23 68 -13 27 -30 64 -38 82 -8
17 -17 32 -21 32 -5 0 -8 9 -8 20 0 11 -4 20 -8 20 -4 0 -15 13 -25 29 -28 47
-156 171 -177 171 -6 0 -10 3 -10 8 0 4 -29 20 -65 37 -36 16 -65 33 -65 37 0
4 -16 8 -35 8 -19 0 -35 5 -35 10 0 6 -20 10 -45 10 -25 0 -45 5 -45 10 0 6
-60 10 -160 10 -100 0 -160 -4 -160 -10 0 -5 -25 -10 -55 -10 -30 0 -55 -4
-55 -10 0 -5 -16 -10 -35 -10 -19 0 -35 -4 -35 -10 0 -5 -5 -10 -11 -10 -11 0
-67 -23 -101 -41 -10 -5 -25 -9 -33 -9 -8 0 -15 -4 -15 -10 0 -5 -9 -10 -20
-10 -11 0 -20 -4 -20 -10 0 -5 -5 -10 -10 -10 -12 0 -94 -52 -98 -62 -2 -5
-10 -8 -18 -8 -8 0 -14 -4 -14 -10 0 -5 -7 -10 -15 -10 -8 0 -15 -4 -15 -10 0
-5 -5 -10 -10 -10 -10 0 -20 -8 -85 -67 -13 -13 -27 -23 -30 -23 -10 0 -55
-49 -55 -60 0 -5 -4 -10 -8 -10 -10 0 -82 -65 -82 -74 0 -4 -19 -27 -42 -51
-66 -69 -88 -94 -88 -100 0 -3 -11 -17 -25 -31 -14 -14 -25 -29 -25 -33 0 -4
-13 -22 -30 -39 -16 -18 -30 -39 -30 -47 0 -8 -4 -15 -8 -15 -5 0 -17 -16 -28
-35 -10 -19 -22 -35 -26 -35 -4 0 -12 -16 -19 -35 -7 -19 -17 -35 -21 -35 -4
0 -8 -6 -8 -13 0 -7 -8 -22 -19 -33 -10 -11 -22 -30 -25 -42 -4 -12 -12 -22
-17 -22 -5 0 -9 -9 -9 -20 0 -11 -4 -20 -10 -20 -5 0 -10 -9 -10 -20 0 -11 -4
-20 -10 -20 -5 0 -10 -9 -10 -20 0 -11 -4 -20 -10 -20 -5 0 -10 -7 -10 -15 0
-8 -6 -15 -14 -15 -8 0 -16 -6 -18 -12 -3 -9 -9 -8 -21 4 -15 15 -17 47 -17
277 0 167 -4 261 -10 261 -5 0 -10 20 -10 45 0 25 -3 45 -8 45 -4 0 -12 22
-19 48 -6 27 -23 72 -37 102 -14 30 -26 61 -26 70 0 8 -9 22 -20 30 -11 8 -20
19 -20 25 0 6 -16 28 -35 48 -19 20 -35 39 -35 42 0 9 -69 75 -77 75 -5 0 -15
9 -23 20 -8 11 -22 20 -32 20 -10 0 -18 4 -18 8 0 4 -20 16 -45 26 -25 11 -45
23 -45 28 0 4 -11 8 -25 8 -14 0 -25 5 -25 10 0 6 -25 10 -55 10 -30 0 -55 5
-55 10 0 6 -60 10 -160 10 -100 0 -160 -4 -160 -10z"/>
<path d="M9300 9440 c0 -6 -32 -10 -75 -10 -43 0 -75 -4 -75 -10 0 -5 -16 -10
-35 -10 -19 0 -69 -11 -111 -25 -42 -14 -87 -25 -100 -25 -13 0 -24 -4 -24
-10 0 -5 -13 -10 -30 -10 -16 0 -30 -4 -30 -10 0 -5 -11 -10 -25 -10 -14 0
-25 -4 -25 -10 0 -5 -9 -10 -20 -10 -11 0 -38 -11 -60 -25 -22 -14 -46 -25
-55 -25 -8 0 -15 -4 -15 -10 0 -5 -9 -10 -20 -10 -11 0 -20 -4 -20 -10 0 -5
-7 -10 -15 -10 -8 0 -15 -4 -15 -10 0 -5 -9 -10 -20 -10 -11 0 -20 -4 -20 -9
0 -5 -8 -12 -19 -16 -10 -3 -33 -19 -50 -35 -17 -17 -33 -30 -36 -30 -19 0
-185 -168 -185 -188 0 -4 -9 -14 -20 -22 -11 -8 -20 -22 -20 -32 0 -10 -4 -18
-9 -18 -5 0 -12 -11 -15 -25 -4 -14 -11 -25 -16 -25 -6 0 -10 -9 -10 -20 0
-11 -4 -20 -10 -20 -5 0 -10 -13 -10 -30 0 -16 -4 -30 -10 -30 -5 0 -10 -18
-10 -40 0 -22 -4 -40 -10 -40 -6 0 -10 -43 -10 -110 0 -67 4 -110 10 -110 6 0
10 -18 10 -40 0 -22 5 -40 10 -40 6 0 10 -9 10 -20 0 -24 20 -70 31 -70 4 0
10 -8 14 -19 7 -23 89 -111 104 -111 6 0 11 -4 11 -8 0 -5 18 -17 40 -27 22
-10 40 -22 40 -27 0 -4 16 -8 35 -8 19 0 35 -4 35 -10 0 -6 47 -10 120 -10 73
0 120 4 120 10 0 6 9 10 20 10 22 0 29 5 88 60 43 40 72 83 72 105 0 8 5 15
10 15 6 0 10 14 10 30 0 17 4 30 9 30 5 0 11 17 14 38 7 52 37 151 58 194 5
10 9 27 9 38 0 11 5 20 10 20 6 0 10 9 10 20 0 11 5 20 10 20 6 0 10 7 10 15
0 14 25 61 40 75 3 3 12 19 20 35 20 40 165 185 184 185 9 0 16 5 16 10 0 6 5
10 11 10 6 0 17 7 25 15 9 8 24 15 34 15 10 0 22 5 25 10 3 6 15 10 26 10 10
0 19 5 19 10 0 6 20 10 45 10 25 0 45 5 45 10 0 6 47 10 120 10 73 0 120 -4
120 -10 0 -5 20 -10 45 -10 25 0 45 -4 45 -10 0 -5 14 -10 30 -10 17 0 30 -4
30 -9 0 -5 16 -12 35 -15 19 -4 35 -11 35 -15 0 -5 14 -14 30 -21 17 -7 30
-16 30 -21 0 -5 5 -9 10 -9 13 0 29 -13 73 -57 56 -57 77 -82 77 -93 0 -5 5
-10 10 -10 6 0 10 -8 10 -18 0 -10 9 -24 20 -32 11 -8 20 -22 20 -30 0 -9 7
-25 15 -36 8 -10 15 -27 15 -36 0 -10 5 -18 10 -18 6 0 10 -13 10 -30 0 -16 5
-30 10 -30 6 0 10 -22 10 -50 0 -27 5 -50 10 -50 6 0 10 -24 10 -53 0 -29 5
-58 10 -63 7 -7 9 -73 7 -190 -5 -188 -13 -264 -28 -264 -5 0 -9 -7 -9 -15 0
-39 -76 -95 -129 -95 -16 0 -33 -4 -36 -10 -3 -5 -33 -10 -66 -10 -33 0 -59
-4 -59 -10 0 -6 -32 -10 -75 -10 -41 0 -75 -4 -75 -9 0 -5 -33 -12 -72 -14
-94 -7 -202 -22 -216 -31 -13 -8 -122 -25 -204 -33 -32 -2 -58 -9 -58 -14 0
-5 -20 -9 -45 -9 -25 0 -45 -4 -45 -9 0 -5 -21 -11 -47 -14 -67 -8 -116 -18
-128 -27 -18 -15 -99 -40 -127 -40 -16 0 -28 -4 -28 -10 0 -5 -11 -10 -25 -10
-14 0 -25 -4 -25 -8 0 -5 -23 -15 -50 -22 -28 -8 -56 -20 -62 -27 -6 -7 -19
-13 -29 -13 -10 0 -21 -4 -24 -10 -3 -5 -15 -10 -26 -10 -10 0 -19 -4 -19 -10
0 -5 -9 -10 -19 -10 -11 0 -21 -3 -23 -7 -1 -5 -21 -17 -42 -28 -68 -35 -76
-40 -76 -47 0 -5 -8 -8 -18 -8 -10 0 -24 -9 -32 -20 -8 -11 -18 -20 -22 -20
-17 0 -78 -45 -78 -57 0 -7 -7 -13 -15 -13 -8 0 -29 -13 -47 -30 -17 -16 -35
-30 -39 -30 -5 0 -9 -5 -9 -11 0 -6 -25 -34 -55 -64 -30 -29 -55 -58 -55 -65
0 -7 -8 -20 -18 -29 -10 -9 -27 -31 -37 -48 -11 -18 -23 -33 -27 -33 -4 0 -8
-9 -8 -20 0 -11 -4 -20 -10 -20 -5 0 -10 -9 -10 -19 0 -11 -4 -21 -9 -23 -9
-4 -51 -110 -58 -150 -3 -16 -9 -28 -14 -28 -5 0 -9 -16 -9 -35 0 -19 -4 -35
-10 -35 -6 0 -10 -83 -10 -230 0 -147 4 -230 10 -230 6 0 10 -13 10 -28 0 -16
11 -52 25 -80 14 -29 25 -61 25 -72 0 -11 5 -20 10 -20 6 0 10 -9 10 -20 0
-11 5 -20 10 -20 6 0 10 -7 10 -16 0 -8 6 -21 13 -28 6 -7 21 -25 32 -41 11
-15 30 -38 43 -51 12 -13 22 -26 22 -29 0 -8 47 -55 55 -55 3 0 21 -15 40 -32
49 -47 63 -58 75 -58 5 0 10 -4 10 -10 0 -5 9 -10 20 -10 11 0 20 -4 20 -10 0
-5 6 -10 14 -10 8 0 16 -3 18 -7 5 -12 64 -43 82 -43 9 0 16 -4 16 -10 0 -5
11 -10 25 -10 14 0 25 -4 25 -10 0 -5 14 -10 30 -10 17 0 30 -4 30 -10 0 -5
16 -10 35 -10 19 0 35 -4 35 -9 0 -5 15 -11 33 -14 17 -2 57 -10 87 -16 172
-34 351 -38 545 -13 99 13 195 35 195 44 0 4 18 8 40 8 22 0 40 5 40 10 0 6
16 10 35 10 19 0 35 3 35 8 0 4 18 13 40 19 51 17 154 65 158 75 2 4 12 8 23
8 10 0 19 5 19 10 0 6 7 10 15 10 17 0 59 24 89 52 11 10 26 18 33 18 7 0 13
5 13 10 0 6 5 10 11 10 6 0 16 6 24 13 7 6 25 21 41 32 15 11 58 50 95 88 57
56 73 67 101 67 26 0 37 -6 51 -31 9 -17 17 -37 17 -45 0 -8 5 -14 10 -14 6 0
10 -9 10 -20 0 -11 5 -20 10 -20 6 0 10 -9 10 -20 0 -12 11 -32 25 -46 14 -14
25 -28 25 -32 0 -12 87 -102 99 -102 6 0 11 -4 11 -8 0 -5 18 -17 40 -27 22
-10 40 -22 40 -27 0 -4 9 -8 20 -8 11 0 20 -4 20 -10 0 -5 16 -10 35 -10 19 0
35 -4 35 -10 0 -5 15 -10 34 -10 19 0 36 -6 38 -12 4 -10 51 -13 191 -13 135
0 189 3 198 13 7 6 26 12 41 12 15 0 28 5 28 10 0 6 16 10 35 10 19 0 35 5 35
10 0 6 9 10 19 10 11 0 21 3 23 8 2 4 21 16 43 27 22 11 47 28 56 37 9 10 19
18 23 18 4 0 24 16 44 35 20 19 40 35 45 35 4 0 7 7 7 16 0 9 8 24 18 33 10 9
27 31 37 49 11 17 23 32 27 32 4 0 8 14 8 30 0 17 5 30 10 30 6 0 10 11 10 24
0 13 5 26 10 28 15 5 15 231 1 236 -6 2 -11 10 -11 18 0 18 -42 28 -88 19 -20
-4 -77 -9 -127 -11 -80 -4 -94 -2 -130 18 -22 13 -44 33 -50 46 -5 12 -13 22
-17 22 -5 0 -8 7 -8 15 0 8 -4 15 -10 15 -5 0 -10 18 -10 40 0 22 -4 40 -10
40 -6 0 -10 117 -10 330 0 213 4 330 10 330 6 0 10 113 10 320 0 207 4 320 10
320 6 0 10 83 10 230 0 147 -4 230 -10 230 -6 0 -10 43 -10 110 0 67 -4 110
-10 110 -5 0 -10 18 -10 39 0 22 -4 42 -9 45 -5 3 -12 23 -15 43 -13 72 -30
133 -38 133 -4 0 -8 11 -8 25 0 14 -4 25 -10 25 -5 0 -10 14 -10 30 0 17 -4
30 -10 30 -5 0 -10 6 -10 14 0 16 -51 110 -62 114 -4 2 -8 14 -8 26 0 12 -9
28 -20 36 -11 8 -20 19 -20 25 0 5 -14 25 -30 44 -17 18 -30 38 -30 42 0 13
-197 209 -209 209 -6 0 -11 5 -11 10 0 6 -5 10 -11 10 -7 0 -19 8 -28 18 -9
10 -31 27 -48 37 -18 11 -33 23 -33 27 0 4 -9 8 -19 8 -11 0 -21 3 -23 8 -4 9
-151 82 -166 82 -7 0 -12 5 -12 10 0 6 -11 10 -25 10 -14 0 -25 5 -25 10 0 6
-13 10 -30 10 -16 0 -30 5 -30 10 0 6 -10 10 -22 10 -24 1 -124 33 -135 44 -3
3 -28 6 -55 6 -26 0 -48 5 -48 10 0 6 -30 10 -70 10 -40 0 -70 4 -70 10 0 6
-108 10 -305 10 -197 0 -305 -4 -305 -10z m994 -2223 c17 -16 26 -54 37 -157
10 -94 1 -337 -12 -346 -5 -3 -9 -25 -9 -50 0 -24 -4 -44 -10 -44 -5 0 -10
-20 -10 -45 0 -25 -4 -45 -10 -45 -5 0 -10 -11 -10 -25 0 -14 -4 -25 -10 -25
-5 0 -10 -8 -10 -18 0 -10 -7 -27 -15 -38 -8 -10 -15 -26 -15 -34 0 -9 -9 -22
-20 -30 -11 -8 -20 -25 -20 -37 0 -13 -3 -23 -8 -23 -4 0 -13 -13 -20 -30 -8
-16 -20 -30 -28 -30 -8 0 -14 -4 -14 -9 0 -10 -105 -121 -115 -121 -3 0 -17
-10 -30 -22 -40 -38 -54 -48 -65 -48 -5 0 -10 -4 -10 -10 0 -5 -9 -10 -20 -10
-11 0 -20 -4 -20 -10 0 -5 -9 -10 -19 -10 -11 0 -23 -4 -26 -10 -3 -5 -15 -10
-25 -10 -10 0 -25 -6 -32 -14 -14 -13 -53 -22 -140 -32 -27 -3 -48 -10 -48
-15 0 -5 -63 -9 -140 -9 -87 0 -140 4 -140 10 0 6 -12 10 -26 10 -31 0 -122
29 -130 41 -3 5 -14 9 -25 9 -10 0 -19 5 -19 10 0 6 -7 10 -15 10 -8 0 -15 5
-15 10 0 6 -7 10 -15 10 -8 0 -15 4 -15 8 0 5 -11 15 -25 22 -14 7 -25 17 -25
22 0 5 -10 20 -22 33 -38 40 -48 54 -48 65 0 5 -4 10 -10 10 -5 0 -10 9 -10
20 0 11 -4 20 -10 20 -5 0 -10 20 -10 45 0 25 -4 45 -10 45 -6 0 -10 47 -10
120 0 73 4 120 10 120 6 0 10 20 10 45 0 25 5 45 10 45 6 0 10 7 10 16 0 19
52 114 63 114 4 0 7 7 7 16 0 19 145 164 191 191 16 10 29 21 29 25 0 4 9 8
20 8 11 0 20 4 20 8 0 4 20 16 45 26 25 11 45 23 45 28 0 4 9 8 19 8 11 0 23
5 26 10 3 6 15 10 26 10 10 0 19 5 19 10 0 6 16 10 35 10 19 0 35 5 35 10 0 6
18 10 40 10 22 0 40 4 40 8 0 16 195 51 333 59 48 2 87 9 87 14 0 15 319 12
334 -4z"/>
<path d="M15020 9440 c0 -5 -25 -10 -55 -10 -30 0 -55 -4 -55 -10 0 -5 -16
-10 -35 -10 -19 0 -35 -4 -35 -10 0 -5 -15 -13 -32 -18 -49 -14 -118 -46 -118
-54 0 -5 -11 -8 -25 -8 -14 0 -25 -4 -25 -10 0 -5 -9 -10 -20 -10 -11 0 -20
-3 -20 -8 0 -4 -16 -16 -35 -26 -19 -11 -35 -23 -35 -28 0 -4 -8 -8 -18 -8
-10 0 -24 -9 -32 -20 -8 -11 -19 -20 -25 -20 -6 0 -33 -20 -58 -45 -26 -25
-49 -45 -52 -45 -9 0 -58 -45 -157 -142 -54 -54 -100 -98 -103 -98 -2 0 -15
-11 -29 -25 -14 -14 -32 -25 -41 -25 -22 0 -54 40 -55 68 0 12 -4 22 -10 22
-5 0 -10 25 -10 55 0 30 -4 55 -9 55 -5 0 -12 23 -15 50 -3 28 -9 73 -12 100
-3 28 -9 50 -14 50 -4 0 -10 17 -14 38 -3 21 -15 48 -26 59 -11 12 -20 27 -20
33 0 26 -69 70 -110 70 -16 0 -30 5 -30 10 0 6 -13 10 -30 10 -16 0 -30 -4
-30 -10 0 -5 -20 -10 -45 -10 -25 0 -45 -4 -45 -8 0 -5 -27 -17 -60 -28 -33
-10 -60 -22 -60 -26 0 -5 -11 -8 -25 -8 -14 0 -25 -4 -25 -10 0 -5 -9 -10 -20
-10 -11 0 -20 -4 -20 -10 0 -5 -7 -10 -15 -10 -9 0 -33 -11 -55 -25 -22 -14
-46 -25 -55 -25 -8 0 -15 -4 -15 -10 0 -5 -11 -10 -25 -10 -14 0 -25 -4 -25
-10 0 -5 -9 -10 -20 -10 -11 0 -20 -4 -20 -10 0 -5 -13 -10 -29 -10 -16 0 -31
-3 -33 -7 -4 -11 -75 -43 -93 -43 -8 0 -15 -4 -15 -10 0 -5 -13 -10 -30 -10
-16 0 -30 -4 -30 -10 0 -5 -11 -10 -25 -10 -14 0 -25 -4 -25 -10 0 -5 -7 -10
-15 -10 -17 0 -109 -49 -113 -62 -2 -4 -8 -8 -13 -8 -18 0 -59 -49 -59 -70 0
-11 -4 -20 -10 -20 -5 0 -10 -22 -10 -50 0 -27 5 -50 10 -50 6 0 10 -11 10
-25 0 -14 4 -25 10 -25 5 0 22 -13 37 -28 35 -35 78 -62 98 -62 8 0 15 -4 15
-10 0 -5 14 -10 30 -10 17 0 30 -4 30 -10 0 -5 6 -10 13 -10 15 0 137 -113
137 -127 0 -4 8 -21 18 -38 16 -28 17 -102 20 -1065 2 -982 -2 -1185 -26
-1285 -14 -55 -35 -105 -44 -105 -4 0 -8 -9 -8 -20 0 -11 -4 -20 -10 -20 -5 0
-10 -5 -10 -10 0 -12 -9 -24 -57 -76 -18 -20 -33 -38 -33 -40 0 -9 -49 -54
-60 -54 -5 0 -10 -4 -10 -10 0 -5 -6 -10 -14 -10 -18 0 -136 -112 -136 -129 0
-6 -4 -11 -9 -11 -10 0 -22 -58 -22 -105 -1 -43 12 -95 22 -95 5 0 9 -5 9 -11
0 -14 41 -48 58 -49 6 0 12 -4 12 -10 0 -5 25 -10 55 -10 30 0 55 -4 55 -10 0
-6 42 -10 105 -10 63 0 105 4 105 10 0 7 207 10 600 10 393 0 600 -3 600 -10
0 -6 35 -10 85 -10 50 0 85 4 85 10 0 6 25 10 55 10 30 0 55 5 55 10 0 6 7 10
16 10 8 0 33 18 55 40 39 39 39 39 39 120 0 47 -4 80 -10 80 -5 0 -10 5 -10
10 0 14 -46 60 -60 60 -5 0 -10 5 -10 10 0 6 -9 10 -20 10 -11 0 -20 5 -20 10
0 6 -6 10 -14 10 -7 0 -19 6 -25 14 -6 7 -24 16 -40 19 -16 3 -36 13 -44 22
-9 8 -25 15 -36 15 -12 0 -21 4 -21 9 0 5 -13 14 -30 21 -16 7 -30 16 -30 21
0 4 -9 10 -20 14 -29 9 -160 138 -160 158 0 9 -4 17 -10 17 -5 0 -10 7 -10 15
0 8 -4 15 -8 15 -12 0 -30 75 -42 170 -7 56 -10 352 -7 880 3 712 5 802 21
865 9 39 21 78 26 87 6 10 10 27 10 38 0 11 5 20 10 20 6 0 10 11 10 25 0 14
5 25 10 25 6 0 10 9 10 20 0 11 3 20 8 20 9 0 42 57 42 74 0 6 9 18 20 26 11
8 20 20 20 28 0 7 6 19 13 26 6 7 21 25 32 41 32 45 126 135 141 135 4 0 14 8
23 18 9 10 41 32 71 48 30 16 57 32 58 37 2 4 21 7 43 7 21 0 39 5 39 10 0 6
38 10 95 10 57 0 95 -4 95 -10 0 -5 9 -10 21 -10 24 0 139 -111 139 -134 0 -9
5 -16 10 -16 6 0 10 -6 10 -14 0 -8 8 -29 17 -48 9 -18 20 -41 25 -50 4 -10 8
-34 8 -53 0 -19 5 -35 10 -35 6 0 10 -20 10 -45 0 -25 5 -45 10 -45 6 0 10
-25 10 -55 0 -30 5 -55 10 -55 6 0 10 -14 10 -30 0 -58 45 -121 109 -153 39
-19 225 -25 236 -7 3 6 15 10 26 10 22 0 119 50 119 62 0 4 7 8 15 8 8 0 34
18 57 40 24 22 51 43 61 46 9 3 17 12 17 20 0 8 13 28 30 45 16 17 32 40 35
50 4 11 11 19 16 19 5 0 9 9 9 20 0 11 5 20 10 20 6 0 10 9 10 20 0 11 5 20
10 20 6 0 10 11 10 25 0 14 4 25 8 25 11 0 42 99 42 133 0 15 5 27 10 27 14 0
7 337 -8 400 -12 52 -35 116 -45 126 -4 4 -7 16 -7 26 0 10 -4 18 -10 18 -5 0
-10 9 -10 20 0 11 -4 20 -10 20 -5 0 -10 9 -10 20 0 11 -4 20 -10 20 -5 0 -10
5 -10 10 0 22 -126 150 -147 150 -5 0 -15 9 -23 20 -8 11 -20 20 -27 20 -7 0
-32 11 -57 25 -25 14 -54 25 -65 25 -12 0 -21 5 -21 10 0 6 -20 10 -45 10 -25
0 -45 5 -45 10 0 6 -60 10 -160 10 -100 0 -160 -4 -160 -10z"/>
<path d="M18030 9440 c0 -6 -32 -10 -75 -10 -41 0 -75 -4 -75 -9 0 -5 -21 -11
-47 -14 -27 -3 -75 -13 -108 -22 -33 -9 -72 -19 -87 -22 -16 -3 -28 -9 -28
-14 0 -5 -13 -9 -30 -9 -16 0 -30 -4 -30 -10 0 -5 -13 -10 -30 -10 -16 0 -30
-4 -30 -10 0 -5 -11 -10 -25 -10 -14 0 -25 -4 -25 -8 0 -5 -20 -17 -45 -28
-25 -10 -45 -22 -45 -26 0 -4 -9 -8 -20 -8 -11 0 -20 -4 -20 -10 0 -5 -9 -10
-20 -10 -11 0 -20 -4 -20 -10 0 -5 -7 -10 -15 -10 -8 0 -15 -3 -15 -8 0 -4
-16 -16 -35 -26 -19 -11 -35 -23 -35 -28 0 -4 -7 -8 -16 -8 -18 0 -185 -167
-211 -211 -10 -16 -21 -29 -25 -29 -4 0 -8 -7 -8 -15 0 -8 -4 -15 -10 -15 -5
0 -10 -9 -10 -20 0 -11 -4 -20 -10 -20 -5 0 -10 -9 -10 -20 0 -11 -4 -20 -9
-20 -11 0 -41 -79 -41 -108 0 -12 -4 -22 -10 -22 -6 0 -10 -52 -10 -135 0 -83
4 -135 10 -135 6 0 10 -12 10 -27 0 -30 49 -143 62 -143 4 0 8 -5 8 -10 0 -14
86 -100 100 -100 5 0 10 -4 10 -8 0 -5 18 -17 40 -28 22 -10 40 -22 40 -26 0
-5 11 -8 25 -8 14 0 25 -4 25 -10 0 -6 50 -10 130 -10 80 0 130 4 130 10 0 6
9 10 20 10 20 0 35 11 92 67 37 35 48 51 48 68 0 8 5 15 10 15 6 0 10 11 10
25 0 14 4 25 9 25 5 0 11 12 14 28 16 76 25 109 35 129 7 12 12 31 12 42 0 12
5 21 10 21 6 0 10 16 10 35 0 19 5 35 10 35 6 0 10 9 10 20 0 11 5 20 10 20 6
0 10 8 10 18 0 25 29 83 52 103 10 9 18 24 18 33 0 9 5 16 10 16 6 0 10 5 10
10 0 22 148 170 170 170 5 0 10 4 10 8 0 11 110 62 133 62 9 0 17 5 17 10 0 6
20 10 45 10 25 0 45 5 45 10 0 6 47 10 120 10 73 0 120 -4 120 -10 0 -5 20
-10 45 -10 25 0 45 -4 45 -10 0 -5 14 -10 30 -10 17 0 30 -4 30 -10 0 -5 7
-10 15 -10 9 0 33 -11 55 -25 22 -14 44 -25 50 -25 5 0 10 -4 10 -10 0 -5 5
-10 11 -10 17 0 149 -137 149 -155 0 -8 5 -15 10 -15 6 0 10 -7 10 -15 0 -8 4
-15 9 -15 10 0 61 -114 61 -136 0 -8 5 -14 10 -14 6 0 10 -16 10 -35 0 -19 4
-35 9 -35 5 0 11 -19 14 -42 3 -24 13 -88 21 -143 25 -165 18 -353 -17 -455
-21 -62 -82 -110 -139 -110 -21 0 -38 -4 -38 -10 0 -6 -27 -10 -60 -10 -33 0
-60 -4 -60 -10 0 -6 -32 -10 -75 -10 -41 0 -75 -4 -75 -9 0 -5 -35 -12 -77
-14 -95 -6 -198 -22 -236 -36 -16 -6 -51 -11 -78 -11 -27 0 -49 -4 -49 -10 0
-5 -25 -10 -55 -10 -30 0 -55 -4 -55 -10 0 -5 -22 -10 -50 -10 -27 0 -50 -4
-50 -9 0 -5 -19 -11 -42 -14 -68 -8 -129 -24 -141 -36 -6 -6 -24 -11 -39 -11
-15 0 -28 -4 -28 -10 0 -5 -16 -10 -35 -10 -19 0 -35 -4 -35 -10 0 -5 -13 -10
-30 -10 -16 0 -30 -4 -30 -10 0 -5 -7 -10 -15 -10 -15 0 -23 -3 -83 -33 -19
-9 -40 -17 -48 -17 -8 0 -14 -4 -14 -10 0 -5 -9 -10 -20 -10 -11 0 -20 -4 -20
-10 0 -5 -9 -10 -20 -10 -11 0 -20 -4 -20 -10 0 -5 -6 -10 -14 -10 -18 0 -76
-32 -76 -42 0 -5 -7 -8 -15 -8 -8 0 -15 -4 -15 -10 0 -5 -9 -10 -20 -10 -11 0
-20 -4 -20 -10 0 -5 -7 -10 -15 -10 -8 0 -29 -13 -47 -30 -17 -16 -35 -30 -39
-30 -5 0 -24 -16 -43 -35 -20 -19 -38 -35 -41 -35 -8 0 -55 -47 -55 -55 0 -3
-25 -30 -55 -59 -30 -29 -55 -58 -55 -66 0 -7 -8 -20 -17 -29 -20 -18 -35 -41
-60 -88 -9 -18 -20 -33 -25 -33 -4 0 -8 -11 -8 -24 0 -13 -3 -26 -8 -28 -18
-8 -82 -227 -82 -282 0 -31 -4 -56 -10 -56 -6 0 -10 -45 -10 -115 0 -70 4
-115 10 -115 6 0 10 -28 10 -64 0 -35 3 -66 8 -68 9 -4 42 -100 42 -122 0 -9
5 -16 10 -16 6 0 10 -9 10 -20 0 -11 5 -20 10 -20 6 0 10 -9 10 -20 0 -11 5
-20 10 -20 6 0 10 -9 10 -20 0 -11 4 -20 9 -20 5 0 12 -8 16 -19 3 -10 19 -33
35 -50 17 -17 30 -33 30 -36 0 -7 68 -75 74 -75 3 0 27 -20 53 -45 25 -25 53
-45 60 -45 7 0 13 -4 13 -10 0 -5 9 -10 20 -10 11 0 20 -4 20 -9 0 -5 35 -27
78 -48 42 -21 79 -41 80 -45 2 -5 21 -8 43 -8 21 0 39 -4 39 -10 0 -5 16 -10
35 -10 19 0 35 -4 35 -8 0 -9 97 -32 190 -44 120 -15 332 -21 400 -10 36 6 97
16 135 22 39 7 85 14 103 17 17 3 32 9 32 14 0 5 16 9 35 9 19 0 35 5 35 10 0
6 18 10 40 10 22 0 40 5 40 10 0 6 7 10 15 10 15 0 23 3 83 33 19 9 40 17 48
17 8 0 14 5 14 10 0 6 9 10 20 10 11 0 20 5 20 10 0 6 9 10 20 10 11 0 20 3
20 8 0 4 15 14 33 21 17 8 37 20 44 25 34 30 43 36 53 36 5 0 10 5 10 10 0 6
7 10 16 10 9 0 24 8 33 18 9 10 34 31 56 48 22 16 69 58 104 94 38 39 66 60
68 53 3 -7 10 -13 17 -13 14 0 56 -70 56 -94 0 -9 5 -16 10 -16 6 0 10 -7 10
-15 0 -8 5 -15 10 -15 6 0 10 -7 10 -16 0 -8 6 -21 13 -29 6 -7 21 -25 32 -41
25 -35 91 -104 100 -104 5 0 16 -8 48 -36 7 -5 27 -17 45 -25 17 -7 32 -17 32
-21 0 -5 14 -8 30 -8 17 0 30 -4 30 -10 0 -5 20 -10 44 -10 27 0 46 -5 48 -12
4 -10 51 -13 191 -13 135 0 189 3 198 13 7 6 26 12 41 12 15 0 28 5 28 10 0 6
16 10 35 10 19 0 35 5 35 10 0 6 9 10 20 10 11 0 20 3 20 8 0 4 24 20 53 36
28 16 59 38 68 48 9 10 19 18 23 18 8 0 56 47 56 55 0 3 16 22 35 42 19 20 35
43 35 50 0 7 5 13 10 13 6 0 10 9 10 20 0 11 5 20 10 20 6 0 10 11 10 25 0 14
4 25 9 25 17 0 39 207 27 254 -11 46 -40 66 -95 66 -28 0 -51 -4 -51 -10 0 -6
-40 -10 -100 -10 -60 0 -100 4 -100 10 0 6 -9 10 -20 10 -11 0 -20 3 -20 8 0
6 -16 27 -60 79 -5 7 -10 21 -10 33 0 11 -4 20 -10 20 -6 0 -10 28 -10 65 0
37 -4 65 -10 65 -6 0 -10 47 -10 120 0 73 4 120 10 120 6 0 10 91 10 254 0
159 4 256 10 258 15 5 16 1081 1 1086 -6 2 -11 29 -11 63 0 32 -4 59 -9 59 -5
0 -11 15 -14 33 -14 82 -24 124 -34 142 -5 11 -15 30 -21 42 -7 13 -12 32 -12
43 0 11 -4 20 -10 20 -5 0 -10 11 -10 25 0 14 -4 25 -10 25 -5 0 -10 9 -10 20
0 11 -4 20 -10 20 -5 0 -10 8 -10 19 0 10 -7 24 -15 31 -8 7 -15 19 -15 26 0
8 -4 14 -10 14 -5 0 -10 9 -10 20 0 11 -4 20 -10 20 -5 0 -10 4 -10 10 0 10
-27 45 -67 86 -13 13 -23 28 -23 34 0 5 -4 10 -10 10 -5 0 -10 4 -10 10 0 14
-151 160 -165 160 -3 0 -16 9 -28 20 -47 44 -82 70 -94 70 -7 0 -13 5 -13 10
0 6 -7 10 -15 10 -8 0 -15 5 -15 10 0 6 -9 10 -20 10 -11 0 -20 5 -20 10 0 6
-7 10 -15 10 -9 0 -33 11 -55 25 -22 14 -46 25 -55 25 -8 0 -15 5 -15 10 0 6
-13 10 -30 10 -16 0 -30 5 -30 10 0 6 -11 10 -25 10 -14 0 -25 5 -25 10 0 6
-10 10 -22 10 -24 0 -74 15 -126 36 -18 8 -51 14 -72 14 -22 0 -40 5 -40 10 0
6 -32 10 -75 10 -43 0 -75 4 -75 10 0 6 -107 10 -300 10 -193 0 -300 -4 -300
-10z m997 -2237 c29 -72 36 -116 37 -243 1 -129 -18 -294 -36 -314 -4 -6 -8
-29 -8 -53 0 -24 -4 -43 -10 -43 -5 0 -10 -13 -10 -30 0 -16 -4 -30 -10 -30
-5 0 -10 -11 -10 -25 0 -14 -3 -25 -7 -25 -5 0 -16 -20 -26 -45 -11 -25 -23
-45 -28 -45 -5 0 -9 -9 -9 -20 0 -11 -4 -20 -10 -20 -5 0 -10 -5 -10 -11 0 -6
-6 -16 -12 -24 -7 -7 -23 -26 -35 -42 -30 -40 -110 -123 -117 -123 -4 0 -12
-5 -19 -10 -56 -47 -74 -60 -84 -60 -7 0 -13 -4 -13 -10 0 -5 -7 -10 -15 -10
-8 0 -15 -4 -15 -10 0 -5 -6 -10 -14 -10 -8 0 -41 -11 -73 -24 -88 -35 -126
-46 -166 -46 -20 0 -37 -4 -37 -10 0 -6 -53 -10 -140 -10 -87 0 -140 4 -140
10 0 6 -12 10 -28 10 -15 0 -52 9 -82 21 -30 11 -63 23 -72 26 -10 3 -18 9
-18 14 0 5 -8 9 -18 9 -10 0 -24 9 -32 20 -8 11 -18 20 -23 20 -10 0 -57 46
-57 56 0 4 -8 14 -18 23 -28 24 -72 108 -72 136 0 14 -4 25 -10 25 -6 0 -10
58 -10 155 0 97 4 155 10 155 6 0 10 8 10 17 0 24 23 86 38 101 6 7 12 20 12
28 0 8 5 14 10 14 6 0 10 7 10 15 0 9 10 26 23 39 12 13 36 40 54 60 18 20 35
36 38 36 3 0 23 18 46 40 22 21 49 42 60 45 10 4 19 11 19 16 0 5 9 9 20 9 11
0 20 5 20 10 0 6 7 10 15 10 8 0 15 4 15 8 0 5 19 17 43 27 23 9 50 21 59 26
10 5 25 9 33 9 8 0 15 5 15 10 0 6 16 10 35 10 19 0 35 5 35 10 0 6 14 10 30
10 17 0 38 4 48 9 44 24 187 49 330 57 50 3 92 10 92 15 0 5 72 9 163 9 l162
0 12 -27z"/>
<path d="M26880 9440 c0 -5 -16 -10 -35 -10 -19 0 -35 -4 -35 -10 0 -5 -6 -10
-14 -10 -8 0 -34 -11 -57 -25 -24 -14 -52 -25 -61 -25 -10 0 -18 -4 -18 -10 0
-5 -11 -10 -25 -10 -14 0 -25 -4 -25 -10 0 -5 -9 -10 -20 -10 -11 0 -20 -4
-20 -10 0 -5 -11 -10 -25 -10 -14 0 -25 -4 -25 -8 0 -10 -71 -42 -93 -42 -10
0 -17 -4 -17 -10 0 -5 -9 -10 -20 -10 -11 0 -20 -4 -20 -10 0 -5 -11 -10 -24
-10 -13 0 -26 -3 -28 -7 -3 -7 -59 -31 -135 -57 -18 -6 -33 -14 -33 -18 0 -5
-16 -8 -35 -8 -19 0 -35 -4 -35 -10 0 -5 -13 -10 -30 -10 -16 0 -30 -4 -30
-10 0 -5 -10 -10 -21 -10 -27 0 -142 -62 -171 -92 -46 -46 -61 -122 -38 -183
13 -35 107 -125 130 -125 5 0 10 -4 10 -10 0 -5 9 -10 20 -10 11 0 20 -4 20
-10 0 -5 8 -10 18 -10 30 0 162 -119 162 -147 0 -7 5 -13 10 -13 6 0 10 -9 10
-20 0 -11 4 -20 9 -20 4 0 12 -19 17 -42 11 -55 10 -2165 0 -2235 -5 -29 -12
-53 -17 -53 -5 0 -9 -11 -9 -25 0 -14 -4 -25 -10 -25 -5 0 -10 -13 -10 -30 0
-16 -4 -30 -8 -30 -4 0 -16 -15 -27 -32 -10 -18 -31 -45 -47 -60 -15 -14 -28
-29 -28 -32 0 -9 -47 -56 -55 -56 -3 0 -17 -11 -31 -25 -14 -14 -28 -25 -32
-25 -15 0 -102 -89 -123 -126 -17 -31 -22 -55 -22 -113 0 -48 4 -76 11 -79 7
-2 12 -8 12 -13 0 -13 46 -59 60 -59 5 0 10 -4 10 -10 0 -6 28 -10 65 -10 37
0 65 -4 65 -10 0 -6 38 -10 95 -10 57 0 95 4 95 10 0 7 173 10 500 10 327 0
500 -3 500 -10 0 -6 33 -10 80 -10 47 0 80 4 80 10 0 6 27 10 60 10 33 0 60 4
60 10 0 6 7 10 16 10 9 0 34 17 55 39 39 39 39 39 39 120 0 67 -4 87 -22 116
-13 19 -27 35 -31 35 -4 0 -23 16 -43 35 -19 19 -39 35 -45 35 -6 0 -24 14
-39 30 -15 17 -33 30 -40 30 -16 0 -110 97 -110 114 0 8 -4 16 -8 18 -15 6
-62 119 -62 148 0 17 -4 30 -10 30 -7 0 -10 435 -10 1285 0 716 4 1285 9 1285
7 0 23 304 24 485 0 79 -11 155 -24 155 -5 0 -9 9 -9 20 0 11 -4 20 -10 20 -5
0 -10 7 -10 15 0 8 -7 15 -15 15 -8 0 -15 5 -15 10 0 6 -13 10 -30 10 -16 0
-30 5 -30 10 0 6 -35 10 -85 10 -50 0 -85 -4 -85 -10z"/>
<path d="M35700 9440 c0 -6 -33 -10 -80 -10 -47 0 -80 -4 -80 -10 0 -5 -20
-10 -44 -10 -24 0 -46 -4 -48 -8 -3 -8 -135 -49 -190 -59 -16 -3 -28 -9 -28
-14 0 -5 -11 -9 -25 -9 -14 0 -25 -4 -25 -10 0 -5 -8 -10 -17 -10 -20 0 -126
-51 -131 -62 -2 -5 -12 -8 -23 -8 -10 0 -19 -4 -19 -10 0 -5 -9 -10 -20 -10
-11 0 -20 -4 -20 -10 0 -5 -5 -10 -11 -10 -6 0 -17 -6 -24 -12 -25 -23 -40
-33 -67 -47 -16 -8 -28 -18 -28 -23 0 -4 -5 -8 -10 -8 -11 0 -25 -10 -65 -47
-13 -13 -28 -23 -32 -23 -5 0 -15 -9 -23 -20 -8 -11 -22 -20 -32 -20 -10 0
-18 -6 -18 -12 0 -7 -13 -23 -28 -35 -51 -41 -82 -70 -82 -77 0 -7 -34 -48
-77 -92 -18 -18 -33 -38 -33 -44 0 -5 -4 -10 -10 -10 -5 0 -10 -7 -10 -16 0
-18 -23 -44 -39 -44 -6 0 -11 -9 -11 -20 0 -11 -4 -20 -10 -20 -5 0 -10 -7
-10 -15 0 -8 -4 -15 -10 -15 -5 0 -10 -9 -10 -20 0 -11 -3 -20 -7 -20 -5 0
-21 -25 -38 -55 -16 -30 -33 -55 -37 -55 -4 0 -8 -11 -8 -25 0 -14 -4 -25 -10
-25 -5 0 -10 -9 -10 -20 0 -11 -4 -20 -10 -20 -5 0 -10 -9 -10 -19 0 -11 -4
-22 -8 -25 -5 -3 -17 -32 -28 -65 -10 -34 -22 -61 -26 -61 -5 0 -8 -11 -8 -25
0 -14 -4 -25 -10 -25 -5 0 -10 -18 -10 -40 0 -22 -4 -40 -10 -40 -5 0 -10 -16
-10 -35 0 -19 -4 -35 -9 -35 -9 0 -29 -94 -38 -175 -3 -27 -9 -54 -14 -59 -5
-6 -9 -45 -9 -88 0 -45 -4 -78 -10 -78 -6 0 -10 -87 -10 -240 0 -153 4 -240
10 -240 6 0 10 -33 10 -80 0 -44 4 -80 9 -80 5 0 11 -21 14 -47 8 -73 28 -167
38 -177 5 -6 9 -23 9 -38 0 -15 5 -28 10 -28 6 0 10 -18 10 -40 0 -22 5 -40
10 -40 6 0 10 -11 10 -25 0 -14 5 -25 10 -25 6 0 10 -7 10 -15 0 -8 11 -38 25
-67 14 -28 25 -60 25 -70 0 -10 5 -18 10 -18 6 0 10 -7 10 -15 0 -8 5 -15 10
-15 6 0 10 -7 10 -15 0 -15 19 -55 31 -65 4 -3 19 -29 35 -57 15 -29 32 -53
36 -53 4 0 8 -7 8 -16 0 -8 13 -29 30 -47 16 -18 30 -35 30 -39 0 -4 11 -18
25 -32 14 -14 25 -28 25 -31 0 -15 178 -193 200 -200 11 -4 20 -12 20 -19 0
-7 11 -19 25 -26 14 -7 25 -17 25 -22 0 -4 7 -8 15 -8 8 0 15 -4 15 -10 0 -5
5 -10 10 -10 6 0 23 -11 38 -25 15 -14 31 -25 37 -25 6 0 17 -9 25 -20 8 -11
22 -20 32 -20 10 0 18 -4 18 -8 0 -4 20 -16 45 -26 25 -11 45 -22 45 -26 0 -3
16 -12 35 -20 19 -8 35 -17 35 -22 0 -4 14 -8 30 -8 17 0 30 -4 30 -10 0 -5
11 -10 25 -10 14 0 25 -3 25 -8 0 -8 59 -30 103 -39 15 -3 27 -9 27 -14 0 -5
14 -9 30 -9 17 0 30 -4 30 -10 0 -5 20 -10 45 -10 25 0 45 -4 45 -10 0 -5 19
-10 43 -10 24 0 47 -4 53 -9 5 -4 70 -16 144 -26 216 -28 678 -12 752 26 10 5
38 9 63 9 25 0 45 5 45 10 0 6 20 10 45 10 25 0 45 5 45 10 0 6 13 10 28 10
15 0 32 4 38 8 5 5 37 17 72 28 34 10 62 22 62 26 0 5 14 8 30 8 17 0 30 5 30
10 0 6 11 10 25 10 14 0 25 5 25 10 0 6 9 10 20 10 11 0 20 3 20 8 0 4 20 16
45 27 25 11 45 23 45 27 0 5 9 8 20 8 11 0 20 5 20 10 0 6 7 10 15 10 8 0 15
5 15 10 0 6 7 10 15 10 9 0 27 11 41 25 14 14 29 25 33 25 4 0 22 14 39 30 18
17 36 30 41 30 6 0 35 25 66 55 30 30 58 55 63 55 4 0 16 12 27 27 11 15 34
41 50 57 17 17 44 49 60 71 16 22 38 47 47 56 10 9 18 19 18 23 0 9 54 90 63
94 4 2 7 10 7 18 0 8 5 14 10 14 6 0 10 9 10 20 0 11 5 20 10 20 6 0 10 9 10
19 0 11 3 21 8 23 10 5 62 114 62 132 0 9 5 16 10 16 6 0 10 11 10 25 0 14 5
25 10 25 6 0 10 11 10 25 0 14 4 33 9 43 26 52 41 96 41 122 0 17 5 30 10 30
6 0 10 25 10 55 0 30 5 55 10 55 6 0 10 25 10 55 0 30 4 55 9 55 11 0 25 209
25 375 0 166 -14 375 -25 375 -5 0 -9 29 -9 65 0 37 -4 65 -10 65 -5 0 -10 17
-10 37 0 20 -4 50 -9 67 -5 17 -18 58 -27 91 -10 33 -22 64 -26 70 -4 5 -8 22
-8 37 0 15 -4 28 -10 28 -5 0 -10 14 -10 30 0 17 -4 30 -10 30 -5 0 -10 11
-10 25 0 14 -4 25 -10 25 -5 0 -10 8 -10 18 0 10 -7 27 -15 38 -8 10 -15 27
-15 37 0 9 -4 17 -10 17 -5 0 -10 9 -10 20 0 11 -4 20 -10 20 -5 0 -10 10 -10
23 0 12 -9 29 -20 37 -11 8 -20 22 -20 31 0 9 -7 22 -15 29 -8 7 -15 18 -15
24 0 6 -9 18 -20 26 -11 8 -20 22 -20 32 0 10 -4 18 -10 18 -5 0 -10 5 -10 11
0 6 -6 16 -12 24 -7 7 -22 25 -33 41 -11 15 -26 33 -32 40 -7 7 -13 17 -13 23
0 6 -4 11 -10 11 -5 0 -10 4 -10 10 0 13 -227 240 -240 240 -6 0 -10 5 -10 10
0 6 -7 10 -15 10 -8 0 -15 5 -15 10 0 6 -5 10 -10 10 -6 0 -22 10 -35 23 -40
37 -54 47 -65 47 -5 0 -10 5 -10 10 0 6 -7 10 -15 10 -9 0 -28 11 -43 25 -15
14 -32 25 -39 25 -7 0 -13 5 -13 10 0 6 -9 10 -20 10 -11 0 -20 5 -20 10 0 6
-7 10 -15 10 -8 0 -15 5 -15 10 0 6 -9 10 -20 10 -11 0 -20 5 -20 10 0 6 -8
10 -17 10 -10 0 -38 11 -62 25 -23 14 -49 25 -57 25 -8 0 -14 5 -14 10 0 6
-16 10 -35 10 -19 0 -35 4 -35 8 0 4 -21 14 -47 21 -27 7 -59 17 -73 21 -14 5
-42 12 -62 16 -21 3 -38 10 -38 15 0 5 -22 9 -50 9 -27 0 -50 5 -50 10 0 6
-33 10 -80 10 -47 0 -80 4 -80 10 0 6 -87 10 -240 10 -153 0 -240 -4 -240 -10z
m313 -529 c6 -6 26 -11 44 -11 18 0 33 -4 33 -10 0 -5 16 -10 35 -10 19 0 35
-4 35 -10 0 -5 9 -10 20 -10 11 0 20 -3 20 -7 0 -5 25 -21 55 -37 30 -16 55
-32 55 -37 0 -5 7 -9 15 -9 8 0 15 -4 15 -10 0 -5 5 -10 10 -10 6 0 30 -20 54
-45 25 -25 49 -45 53 -45 5 0 17 -12 28 -27 11 -14 37 -44 58 -65 20 -22 37
-43 37 -47 0 -5 14 -22 30 -39 17 -18 30 -39 30 -47 0 -8 5 -15 10 -15 6 0 10
-7 10 -15 0 -8 4 -15 8 -15 5 0 17 -18 27 -40 10 -22 22 -40 27 -40 4 0 8 -9
8 -20 0 -11 5 -20 10 -20 6 0 10 -11 10 -25 0 -14 5 -25 10 -25 6 0 10 -9 10
-19 0 -11 3 -21 8 -23 11 -5 42 -76 42 -98 0 -11 5 -20 10 -20 6 0 10 -13 10
-30 0 -16 5 -30 10 -30 6 0 10 -13 10 -30 0 -16 5 -30 10 -30 6 0 10 -15 10
-34 0 -19 4 -36 10 -38 10 -3 27 -69 37 -140 3 -21 9 -38 14 -38 5 0 9 -20 9
-45 0 -25 5 -45 10 -45 6 0 10 -28 10 -65 0 -37 4 -65 10 -65 6 0 10 -29 10
-68 0 -37 5 -83 10 -102 17 -58 23 -345 10 -435 -6 -44 -14 -108 -17 -142 -3
-35 -9 -63 -14 -63 -5 0 -9 -20 -9 -45 0 -25 -4 -45 -10 -45 -5 0 -10 -16 -10
-35 0 -19 -4 -35 -10 -35 -5 0 -10 -7 -10 -16 0 -19 -50 -128 -62 -132 -4 -2
-8 -15 -8 -28 0 -13 -4 -24 -10 -24 -5 0 -10 -6 -10 -12 0 -11 -13 -29 -60
-85 -5 -7 -10 -15 -10 -18 0 -12 -131 -134 -150 -140 -11 -4 -20 -11 -20 -16
0 -5 -7 -9 -15 -9 -8 0 -15 -4 -15 -10 0 -5 -9 -10 -20 -10 -11 0 -20 -4 -20
-8 0 -16 -109 -62 -147 -62 -13 0 -23 -4 -23 -10 0 -5 -20 -10 -45 -10 -25 0
-45 -4 -45 -10 0 -6 -53 -10 -140 -10 -87 0 -140 4 -140 10 0 6 -20 10 -45 10
-25 0 -45 4 -45 9 0 5 -13 11 -30 15 -16 3 -43 9 -60 12 -16 3 -35 12 -41 20
-6 8 -20 14 -30 14 -11 0 -19 5 -19 10 0 6 -9 10 -20 10 -11 0 -20 5 -20 10 0
6 -7 10 -15 10 -8 0 -15 5 -15 10 0 6 -5 10 -12 10 -27 0 -258 205 -258 229 0
4 -13 22 -30 39 -16 18 -30 39 -30 47 0 8 -4 15 -9 15 -5 0 -21 25 -37 55 -16
30 -32 55 -36 55 -5 0 -8 9 -8 19 0 11 -4 23 -10 26 -5 3 -10 15 -10 26 0 10
-4 19 -10 19 -5 0 -10 8 -10 18 0 10 -4 22 -8 28 -4 5 -16 34 -26 64 -11 30
-23 59 -27 64 -5 6 -9 23 -9 38 0 15 -4 28 -10 28 -5 0 -10 20 -10 45 0 25 -4
45 -10 45 -5 0 -10 18 -10 39 0 22 -4 42 -9 45 -4 3 -11 25 -15 48 -28 169
-39 269 -43 373 -2 66 -8 124 -14 130 -12 12 -12 245 0 245 5 0 11 51 14 113
6 122 26 246 51 317 9 25 16 55 16 68 0 12 5 22 10 22 6 0 10 11 10 25 0 14 4
33 9 43 5 9 22 44 38 77 15 33 31 62 36 63 4 2 7 10 7 18 0 8 9 24 20 36 11
12 20 28 20 35 0 7 5 13 10 13 6 0 16 11 22 25 6 14 15 25 20 25 11 0 38 25
38 35 0 8 68 75 76 75 4 0 14 8 23 18 19 22 108 72 127 72 8 0 14 5 14 10 0 6
11 10 25 10 14 0 25 5 25 10 0 6 15 10 33 10 18 0 37 4 43 9 15 15 70 19 198
16 67 -2 123 -8 129 -14z"/>
<path d="M44600 9440 c0 -6 -32 -10 -75 -10 -43 0 -75 -4 -75 -10 0 -5 -25
-10 -55 -10 -30 0 -55 -4 -55 -8 0 -4 -35 -16 -77 -27 -43 -10 -82 -22 -87
-27 -6 -4 -20 -8 -33 -8 -13 0 -23 -4 -23 -10 0 -5 -13 -10 -30 -10 -16 0 -30
-4 -30 -10 0 -5 -11 -10 -25 -10 -14 0 -25 -4 -25 -8 0 -5 -20 -17 -45 -28
-25 -10 -45 -22 -45 -26 0 -4 -9 -8 -20 -8 -11 0 -20 -4 -20 -10 0 -5 -9 -10
-20 -10 -11 0 -20 -4 -20 -10 0 -5 -5 -10 -11 -10 -6 0 -17 -6 -24 -12 -33
-30 -45 -38 -55 -38 -5 0 -10 -4 -10 -10 0 -5 -7 -10 -16 -10 -19 0 -211 -194
-219 -221 -4 -11 -11 -19 -16 -19 -5 0 -9 -7 -9 -15 0 -8 -4 -15 -10 -15 -5 0
-10 -9 -10 -20 0 -11 -4 -20 -10 -20 -5 0 -10 -7 -10 -16 0 -8 -6 -22 -14 -30
-8 -8 -20 -39 -27 -69 -7 -30 -16 -55 -21 -55 -4 0 -8 -65 -8 -145 0 -90 4
-145 10 -145 6 0 10 -7 10 -16 0 -23 51 -134 61 -134 5 0 9 -5 9 -11 0 -35
179 -169 225 -169 14 0 25 -4 25 -10 0 -6 48 -10 125 -10 77 0 125 4 125 10 0
6 9 10 20 10 19 0 52 23 94 67 37 39 46 52 46 68 0 8 5 15 10 15 6 0 10 11 10
25 0 14 4 25 9 25 5 0 11 12 14 28 18 91 28 127 37 136 6 6 10 20 10 33 0 13
5 23 10 23 6 0 10 16 10 35 0 19 5 35 10 35 6 0 10 7 10 16 0 22 52 126 72
145 10 9 18 24 18 33 0 9 5 16 10 16 6 0 10 5 10 10 0 6 9 21 20 33 65 72 111
117 120 117 5 0 10 5 10 10 0 6 7 10 15 10 8 0 15 4 15 8 0 11 110 62 133 62
9 0 17 5 17 10 0 6 20 10 45 10 25 0 45 5 45 10 0 6 43 10 110 10 67 0 110 -4
110 -10 0 -5 25 -10 55 -10 30 0 55 -4 55 -10 0 -5 8 -10 17 -10 23 0 133 -51
133 -62 0 -4 9 -8 20 -8 11 0 20 -4 20 -10 0 -5 5 -10 11 -10 17 0 149 -137
149 -155 0 -8 5 -15 10 -15 6 0 10 -7 10 -15 0 -8 4 -15 9 -15 10 0 61 -114
61 -136 0 -8 5 -14 10 -14 6 0 10 -16 10 -35 0 -19 4 -35 9 -35 5 0 11 -21 14
-47 3 -27 10 -73 17 -103 18 -87 15 -395 -4 -450 -9 -25 -16 -51 -16 -58 0
-34 -84 -92 -132 -92 -20 0 -40 -4 -43 -10 -3 -5 -31 -10 -61 -10 -30 0 -54
-4 -54 -10 0 -6 -32 -10 -75 -10 -41 0 -75 -4 -75 -9 0 -5 -35 -12 -77 -14
-95 -6 -198 -22 -236 -36 -16 -6 -51 -11 -78 -11 -27 0 -49 -4 -49 -10 0 -5
-25 -10 -55 -10 -30 0 -55 -4 -55 -10 0 -5 -22 -10 -50 -10 -27 0 -50 -4 -50
-10 0 -5 -14 -10 -32 -10 -30 0 -63 -8 -133 -32 -16 -6 -42 -13 -57 -15 -16
-3 -28 -9 -28 -14 0 -5 -16 -9 -35 -9 -19 0 -35 -4 -35 -10 0 -5 -13 -10 -30
-10 -16 0 -30 -4 -30 -10 0 -5 -7 -10 -15 -10 -15 0 -23 -3 -83 -33 -19 -9
-40 -17 -48 -17 -8 0 -14 -4 -14 -10 0 -5 -9 -10 -20 -10 -11 0 -20 -4 -20
-10 0 -5 -9 -10 -20 -10 -11 0 -20 -4 -20 -10 0 -5 -7 -10 -15 -10 -15 0 -63
-27 -75 -41 -3 -3 -20 -12 -37 -20 -18 -8 -33 -17 -33 -21 0 -5 -7 -8 -15 -8
-8 0 -29 -13 -47 -30 -17 -16 -34 -30 -39 -30 -4 0 -25 -17 -47 -37 -21 -21
-51 -47 -65 -58 -15 -11 -27 -23 -27 -27 0 -5 -29 -37 -65 -72 -36 -35 -65
-71 -65 -80 0 -9 -4 -16 -10 -16 -5 0 -10 -7 -10 -15 0 -8 -4 -15 -8 -15 -5 0
-17 -18 -27 -40 -10 -22 -22 -40 -27 -40 -4 0 -8 -11 -8 -25 0 -14 -4 -25 -10
-25 -5 0 -10 -9 -10 -20 0 -11 -4 -20 -10 -20 -5 0 -10 -16 -10 -35 0 -19 -4
-35 -8 -35 -10 0 -32 -82 -44 -170 -15 -105 -21 -290 -9 -290 6 0 11 -20 11
-46 0 -51 30 -174 42 -174 4 0 8 -11 8 -24 0 -14 5 -28 10 -31 6 -3 10 -15 10
-26 0 -10 5 -19 10 -19 6 0 10 -7 10 -15 0 -8 4 -15 8 -15 4 0 14 -16 21 -35
7 -20 28 -51 47 -70 19 -19 34 -37 34 -40 0 -7 67 -75 74 -75 3 0 27 -20 53
-45 25 -25 53 -45 60 -45 7 0 13 -4 13 -10 0 -5 7 -10 15 -10 8 0 15 -4 15
-10 0 -5 9 -10 20 -10 11 0 20 -4 20 -9 0 -4 29 -21 65 -37 36 -16 65 -32 65
-36 0 -5 16 -8 35 -8 19 0 35 -4 35 -10 0 -5 18 -10 40 -10 22 0 40 -4 40 -8
0 -9 98 -32 190 -44 197 -25 372 -21 550 14 30 6 70 13 88 15 17 3 32 9 32 14
0 5 16 9 35 9 19 0 35 5 35 10 0 6 18 10 40 10 22 0 40 5 40 10 0 6 7 10 15
10 15 0 23 3 83 33 19 9 40 17 48 17 8 0 14 5 14 10 0 6 9 10 20 10 11 0 20 5
20 10 0 6 9 10 20 10 11 0 20 4 20 8 0 4 16 14 35 21 19 7 35 15 35 19 0 4 16
16 35 26 19 11 35 23 35 28 0 4 7 8 15 8 8 0 32 16 52 35 20 19 41 35 45 35 5
0 43 35 85 78 44 44 78 72 80 65 3 -7 11 -13 18 -13 7 0 19 -13 27 -30 7 -16
16 -30 20 -30 5 0 8 -11 8 -25 0 -14 3 -25 8 -25 4 0 14 -15 22 -32 15 -35 21
-45 58 -83 12 -13 22 -27 22 -30 0 -7 68 -75 75 -75 5 0 17 -8 48 -36 7 -5 27
-17 45 -25 17 -7 32 -17 32 -21 0 -5 14 -8 30 -8 17 0 30 -4 30 -10 0 -5 20
-10 44 -10 27 0 46 -5 48 -12 4 -10 51 -13 193 -13 142 0 189 3 192 13 3 6 20
12 39 12 19 0 34 5 34 10 0 6 16 10 35 10 19 0 35 5 35 10 0 6 9 10 20 10 11
0 20 5 20 10 0 6 4 10 10 10 9 0 72 39 97 60 7 5 14 10 17 10 7 0 56 50 56 56
0 3 13 18 28 32 16 15 37 42 47 60 11 17 23 32 27 32 4 0 8 9 8 20 0 11 5 20
10 20 6 0 10 14 10 30 0 17 5 30 10 30 6 0 10 16 10 35 0 19 5 35 10 35 6 0
10 37 10 90 0 53 -4 90 -10 90 -5 0 -10 7 -10 16 0 29 -27 44 -79 44 -28 0
-51 -4 -51 -10 0 -6 -40 -10 -100 -10 -60 0 -100 4 -100 10 0 6 -8 10 -17 10
-10 0 -29 16 -43 36 -14 19 -31 41 -37 49 -7 7 -13 23 -13 34 0 12 -4 21 -10
21 -5 0 -10 23 -10 50 0 28 -4 50 -10 50 -6 0 -10 55 -10 145 0 90 4 145 10
145 6 0 10 92 10 255 0 163 4 255 10 255 7 0 10 183 10 530 0 347 -3 530 -10
530 -6 0 -10 27 -10 60 0 33 -4 60 -10 60 -5 0 -10 20 -10 45 0 25 -4 45 -10
45 -5 0 -10 14 -10 30 0 17 -11 53 -25 82 -14 28 -25 60 -25 70 0 10 -4 18
-10 18 -5 0 -10 11 -10 25 0 14 -4 25 -10 25 -5 0 -10 9 -10 20 0 11 -4 20
-10 20 -5 0 -10 6 -10 14 0 18 -32 76 -42 76 -5 0 -8 9 -8 20 0 11 -4 20 -10
20 -5 0 -10 5 -10 10 0 6 -11 22 -24 35 -14 13 -27 34 -31 45 -3 11 -13 20
-21 20 -8 0 -14 5 -14 10 0 10 -14 26 -87 102 -34 36 -113 108 -119 108 -3 0
-10 5 -17 10 -56 47 -74 60 -84 60 -7 0 -13 5 -13 10 0 6 -7 10 -15 10 -8 0
-15 5 -15 10 0 6 -9 10 -20 10 -11 0 -20 5 -20 10 0 6 -6 10 -14 10 -18 0 -76
32 -76 43 0 4 -11 7 -25 7 -14 0 -25 5 -25 10 0 6 -13 10 -30 10 -16 0 -30 5
-30 10 0 6 -11 10 -25 10 -14 0 -25 5 -25 10 0 6 -10 10 -22 10 -24 0 -74 15
-126 36 -18 8 -51 14 -72 14 -22 0 -40 5 -40 10 0 6 -32 10 -75 10 -43 0 -75
4 -75 10 0 6 -107 10 -300 10 -193 0 -300 -4 -300 -10z m990 -2230 c0 -11 4
-20 9 -20 11 0 18 -37 31 -165 11 -100 2 -224 -22 -335 -5 -25 -14 -65 -19
-90 -5 -25 -12 -57 -16 -72 -3 -16 -9 -28 -14 -28 -5 0 -9 -13 -9 -30 0 -16
-4 -30 -10 -30 -5 0 -10 -6 -10 -14 0 -18 -32 -76 -42 -76 -5 0 -8 -9 -8 -20
0 -11 -4 -20 -10 -20 -5 0 -10 -5 -10 -10 0 -6 -11 -22 -25 -36 -14 -14 -25
-28 -25 -32 0 -9 -86 -102 -94 -102 -4 0 -17 -9 -29 -20 -47 -44 -82 -70 -94
-70 -7 0 -13 -4 -13 -10 0 -5 -9 -10 -19 -10 -11 0 -21 -3 -23 -8 -3 -8 -103
-50 -169 -71 -19 -6 -50 -11 -67 -11 -18 0 -32 -4 -32 -10 0 -6 -55 -10 -145
-10 -90 0 -145 4 -145 10 0 6 -18 10 -39 10 -22 0 -43 5 -46 10 -3 6 -15 10
-25 10 -20 0 -83 30 -88 43 -2 4 -11 7 -21 7 -9 0 -23 9 -31 20 -8 11 -18 20
-23 20 -10 0 -57 46 -57 56 0 4 -8 14 -18 23 -25 22 -72 107 -72 131 0 10 -4
22 -10 25 -5 3 -10 26 -10 51 0 24 -4 44 -10 44 -5 0 -10 25 -10 55 0 30 5 55
10 55 6 0 10 25 10 55 0 30 5 55 10 55 6 0 10 9 10 20 0 22 50 133 62 138 4 2
8 10 8 18 0 8 10 25 23 38 12 12 33 39 47 59 14 20 31 37 38 37 7 0 33 20 56
45 24 25 51 45 60 45 9 0 16 5 16 10 0 6 9 10 20 10 11 0 20 5 20 10 0 6 7 10
15 10 8 0 15 4 15 8 0 5 19 17 43 27 23 9 50 21 59 26 10 5 25 9 33 9 8 0 15
5 15 10 0 6 16 10 35 10 19 0 35 5 35 10 0 6 16 10 35 10 19 0 35 3 35 8 0 16
199 50 338 58 50 3 92 10 92 15 0 5 73 9 165 9 158 0 165 -1 165 -20z"/>
<path d="M20975 9373 c-27 -10 -51 -21 -53 -25 -2 -4 -8 -8 -14 -8 -15 0 -38
-27 -38 -44 0 -9 -4 -16 -10 -16 -6 0 -10 -40 -10 -100 0 -60 4 -100 10 -100
6 0 10 -9 10 -20 0 -11 5 -20 10 -20 6 0 10 -5 10 -11 0 -11 155 -169 165
-169 8 0 35 -27 35 -35 0 -3 10 -16 23 -29 12 -13 31 -36 42 -51 11 -16 26
-34 33 -41 6 -7 12 -20 12 -28 0 -9 4 -16 9 -16 5 0 21 -25 37 -55 16 -30 32
-55 37 -55 4 0 7 -9 7 -20 0 -11 5 -20 10 -20 6 0 10 -10 10 -21 0 -12 8 -29
18 -38 10 -9 24 -36 32 -60 8 -24 20 -49 27 -57 7 -7 13 -20 13 -28 0 -9 5
-16 10 -16 6 0 10 -11 10 -25 0 -14 5 -25 10 -25 6 0 10 -6 10 -14 0 -13 12
-39 56 -129 8 -16 14 -35 14 -43 0 -8 5 -14 10 -14 6 0 10 -13 10 -30 0 -16 5
-30 10 -30 6 0 10 -11 10 -25 0 -14 5 -25 10 -25 6 0 10 -7 10 -15 0 -8 11
-38 25 -67 14 -28 25 -60 25 -70 0 -10 5 -18 10 -18 6 0 10 -11 10 -25 0 -14
5 -25 10 -25 6 0 10 -7 10 -16 0 -8 16 -49 35 -91 19 -42 35 -84 35 -94 0 -11
5 -19 10 -19 6 0 10 -9 10 -20 0 -11 5 -20 10 -20 6 0 10 -13 10 -30 0 -16 5
-30 10 -30 6 0 10 -11 10 -25 0 -14 4 -25 9 -25 5 0 12 -13 16 -30 4 -16 11
-32 16 -35 5 -4 9 -15 9 -26 0 -10 5 -19 10 -19 6 0 10 -13 10 -30 0 -16 5
-30 10 -30 6 0 10 -11 10 -25 0 -14 4 -25 8 -25 4 0 14 -20 21 -46 7 -25 20
-51 27 -59 8 -7 14 -25 14 -39 0 -14 5 -26 10 -26 6 0 10 -11 10 -25 0 -14 5
-25 10 -25 6 0 10 -11 10 -25 0 -14 3 -25 8 -25 4 0 16 -27 26 -61 11 -33 23
-62 28 -65 4 -3 8 -14 8 -25 0 -10 5 -19 10 -19 6 0 10 -13 10 -30 0 -16 5
-30 10 -30 6 0 10 -11 10 -25 0 -14 4 -25 8 -25 5 0 17 -25 27 -55 11 -30 23
-55 27 -55 4 0 8 -11 8 -25 0 -14 5 -25 10 -25 6 0 10 -13 10 -30 0 -16 5 -30
10 -30 6 0 10 -7 10 -15 0 -8 4 -23 9 -33 20 -37 61 -144 61 -158 0 -8 5 -14
10 -14 6 0 10 -11 10 -25 0 -14 5 -25 10 -25 6 0 10 -13 10 -30 0 -16 3 -30 8
-30 9 0 42 -74 42 -95 0 -8 5 -15 10 -15 6 0 10 -11 10 -25 0 -14 5 -25 10
-25 6 0 10 -9 10 -20 0 -11 5 -20 10 -20 6 0 10 -13 10 -29 0 -17 5 -33 10
-36 6 -3 10 -15 10 -26 0 -10 3 -19 8 -19 8 0 30 -59 39 -102 3 -16 9 -28 14
-28 5 0 9 -9 9 -20 0 -11 5 -20 10 -20 6 0 10 -9 10 -21 0 -11 6 -27 13 -34
27 -31 37 -44 37 -51 0 -11 67 -74 79 -74 6 0 11 -3 11 -8 0 -4 18 -13 40 -20
48 -15 240 -16 240 -2 0 6 16 10 35 10 19 0 35 5 35 10 0 6 18 10 40 10 22 0
40 5 40 10 0 6 6 10 14 10 18 0 140 68 144 81 2 5 10 9 19 9 15 0 133 112 133
127 0 4 10 19 21 33 36 45 69 99 69 115 0 8 5 15 10 15 6 0 10 9 10 20 0 11 5
20 10 20 6 0 10 9 10 20 0 11 4 20 10 20 5 0 12 11 16 25 3 14 10 25 15 25 5
0 9 9 9 19 0 11 5 23 10 26 6 3 10 15 10 26 0 10 4 19 8 19 4 0 14 21 21 48 8
26 17 52 21 57 4 6 10 22 14 38 3 15 11 27 16 27 6 0 10 11 10 25 0 14 5 25
10 25 6 0 10 14 10 30 0 17 5 30 10 30 6 0 10 11 10 25 0 14 4 25 8 25 4 0 14
21 21 48 8 26 21 61 29 77 8 17 19 38 23 47 5 10 9 29 9 43 0 14 5 25 10 25 6
0 10 14 10 30 0 17 5 30 10 30 6 0 10 11 10 25 0 14 3 25 8 25 4 0 16 29 27
65 10 36 23 65 27 65 4 0 8 14 8 30 0 17 5 30 10 30 6 0 10 9 10 20 0 10 5 32
11 47 6 15 15 37 19 48 4 11 15 37 24 58 9 21 16 47 16 57 0 11 5 20 10 20 6
0 10 11 10 25 0 14 5 25 10 25 6 0 10 14 10 30 0 17 5 30 10 30 6 0 10 14 10
30 0 17 4 30 10 30 5 0 12 16 16 35 3 19 10 35 15 35 5 0 9 14 9 30 0 17 5 30
10 30 6 0 10 11 10 25 0 14 5 25 10 25 6 0 10 11 10 25 0 14 4 33 9 43 20 37
61 144 61 158 0 8 5 14 10 14 6 0 10 14 10 30 0 17 5 30 10 30 6 0 10 11 10
25 0 14 5 25 10 25 6 0 10 10 10 22 0 13 11 45 24 73 13 27 30 71 37 98 8 26
17 47 21 47 4 0 8 11 8 25 0 14 5 25 10 25 6 0 10 11 10 25 0 13 11 44 25 69
14 25 25 54 25 65 0 12 5 21 10 21 6 0 10 14 10 30 0 17 5 30 10 30 6 0 10 9
10 20 0 11 5 20 10 20 6 0 10 10 10 23 0 12 11 42 25 66 14 23 25 49 25 57 0
8 5 14 10 14 6 0 10 11 10 25 0 14 5 25 10 25 6 0 10 9 10 20 0 11 5 20 10 20
6 0 10 9 10 20 0 11 3 20 8 20 4 0 16 16 26 35 11 19 23 35 28 35 4 0 8 8 8
18 0 10 9 24 20 32 11 8 20 18 20 23 0 11 14 27 113 128 48 49 87 93 87 98 0
5 3 11 8 13 16 7 51 85 57 128 8 54 -9 134 -33 159 -9 10 -33 27 -52 37 -32
17 -52 19 -215 14 -231 -6 -484 -6 -760 0 -192 4 -224 3 -250 -12 -45 -24 -75
-53 -75 -72 0 -9 -4 -16 -10 -16 -6 0 -10 -36 -10 -88 0 -76 3 -89 20 -102 11
-8 20 -20 20 -26 0 -6 41 -52 90 -102 50 -50 90 -95 90 -101 0 -6 5 -11 10
-11 6 0 10 -9 10 -20 0 -11 5 -20 10 -20 6 0 10 -9 10 -19 0 -11 5 -21 11 -23
17 -6 23 -191 9 -263 -6 -33 -14 -78 -17 -100 -3 -22 -9 -44 -14 -50 -5 -5 -9
-24 -9 -42 0 -18 -4 -33 -10 -33 -5 0 -10 -18 -10 -39 0 -22 -4 -43 -10 -46
-5 -3 -10 -17 -10 -30 0 -13 -6 -39 -14 -57 -8 -18 -19 -53 -26 -78 -7 -25
-16 -53 -21 -62 -5 -10 -9 -27 -9 -38 0 -11 -4 -20 -10 -20 -5 0 -10 -18 -10
-40 0 -22 -4 -40 -10 -40 -5 0 -10 -10 -10 -22 -1 -13 -7 -34 -15 -48 -8 -14
-14 -35 -15 -47 0 -13 -4 -23 -10 -23 -5 0 -10 -16 -10 -35 0 -19 -4 -35 -10
-35 -5 0 -10 -13 -10 -30 0 -16 -4 -30 -10 -30 -5 0 -10 -16 -10 -35 0 -19 -4
-35 -10 -35 -5 0 -10 -13 -10 -28 0 -15 -4 -32 -9 -37 -4 -6 -16 -35 -26 -65
-9 -30 -21 -63 -26 -72 -5 -10 -9 -27 -9 -38 0 -11 -4 -20 -10 -20 -5 0 -10
-13 -10 -29 0 -17 -4 -33 -10 -36 -5 -3 -10 -19 -10 -35 0 -16 -4 -31 -9 -35
-5 -3 -12 -19 -16 -35 -4 -17 -11 -30 -16 -30 -5 0 -9 -13 -9 -30 0 -16 -4
-30 -10 -30 -5 0 -10 -16 -10 -35 0 -19 -4 -35 -10 -35 -5 0 -10 -7 -10 -15 0
-8 -4 -23 -9 -33 -18 -34 -61 -147 -61 -159 0 -7 -4 -13 -10 -13 -5 0 -10 -11
-10 -25 0 -14 -4 -25 -10 -25 -5 0 -10 -9 -10 -20 0 -11 -4 -20 -10 -20 -5 0
-10 -7 -10 -15 0 -19 -26 -61 -57 -93 l-23 -23 -23 23 c-12 13 -31 42 -41 66
-11 23 -23 42 -28 42 -4 0 -8 11 -8 25 0 14 -4 25 -10 25 -5 0 -10 9 -10 20 0
11 -4 20 -10 20 -5 0 -10 8 -10 18 0 9 -7 26 -15 36 -8 11 -15 26 -15 33 0 8
-9 33 -20 55 -11 23 -20 50 -20 60 0 10 -4 18 -10 18 -5 0 -10 7 -10 15 0 8
-4 23 -9 33 -20 37 -61 144 -61 158 0 8 -4 14 -10 14 -5 0 -10 11 -10 25 0 14
-4 25 -10 25 -5 0 -10 14 -10 30 0 17 -4 30 -10 30 -5 0 -10 6 -10 13 0 12
-43 125 -61 159 -5 10 -9 25 -9 33 0 8 -4 15 -10 15 -5 0 -10 11 -10 24 0 14
-4 28 -10 31 -5 3 -10 17 -10 31 0 13 -4 24 -10 24 -5 0 -10 7 -10 16 0 8 -5
25 -12 37 -18 32 -38 89 -38 110 0 9 -4 17 -10 17 -5 0 -10 9 -10 20 0 11 -4
20 -10 20 -5 0 -10 13 -10 29 0 17 -4 33 -10 36 -5 3 -10 15 -10 25 0 10 -7
25 -15 34 -8 8 -15 24 -15 35 0 11 -4 23 -10 26 -5 3 -10 17 -10 31 0 13 -4
24 -10 24 -5 0 -10 13 -10 29 0 17 -3 32 -8 35 -4 2 -16 34 -27 70 -11 36 -23
66 -27 66 -5 0 -8 9 -8 19 0 11 -4 23 -10 26 -5 3 -10 19 -10 36 0 16 -4 29
-10 29 -5 0 -10 16 -10 35 0 19 -4 35 -10 35 -5 0 -10 11 -10 25 0 14 -4 33
-9 43 -19 36 -41 160 -41 234 0 61 5 89 26 137 15 34 31 61 35 61 5 0 9 5 9
11 0 6 15 26 33 45 17 19 42 46 55 59 12 13 22 29 22 35 0 5 5 10 10 10 6 0
10 9 10 19 0 11 6 21 12 23 16 6 16 154 0 170 -7 7 -12 18 -12 25 0 18 -45 63
-63 63 -7 0 -19 6 -26 13 -9 9 -77 11 -299 7 -402 -7 -683 -6 -922 2 -178 7
-212 5 -255 -9z"/>
<path d="M4750 3410 c-25 -5 -71 -9 -102 -9 -32 -1 -58 -5 -58 -11 0 -5 -13
-10 -30 -10 -16 0 -30 -4 -30 -10 0 -5 -11 -10 -24 -10 -27 0 -142 -63 -167
-92 -9 -10 -20 -18 -25 -18 -17 0 -94 -78 -94 -94 0 -9 -4 -16 -8 -16 -12 0
-62 -93 -62 -114 0 -9 -4 -16 -10 -16 -5 0 -10 -20 -10 -45 0 -25 -4 -45 -10
-45 -6 0 -10 -32 -10 -75 0 -43 4 -75 10 -75 6 0 10 -12 10 -27 0 -39 37 -135
59 -153 3 -3 13 -18 21 -35 15 -30 54 -75 65 -75 4 0 12 -6 19 -12 35 -34 65
-56 94 -69 18 -8 32 -17 32 -21 0 -5 9 -8 20 -8 11 0 20 -4 20 -8 0 -4 20 -16
45 -26 25 -11 45 -23 45 -28 0 -4 14 -8 30 -8 17 0 30 -4 30 -10 0 -5 11 -10
25 -10 14 0 25 -4 25 -10 0 -5 16 -10 35 -10 19 0 35 -4 35 -10 0 -5 9 -10 20
-10 28 0 130 -33 130 -42 0 -4 13 -8 29 -8 17 0 33 -4 36 -10 3 -5 19 -10 36
-10 16 0 29 -4 29 -10 0 -5 9 -10 20 -10 11 0 20 -3 20 -7 0 -5 20 -16 45 -26
25 -11 45 -23 45 -28 0 -5 5 -9 10 -9 18 0 94 -84 113 -123 23 -50 25 -218 2
-241 -8 -8 -15 -22 -15 -30 0 -9 -4 -16 -10 -16 -5 0 -10 -5 -10 -10 0 -12
-59 -73 -80 -83 -8 -4 -28 -16 -45 -26 -16 -11 -45 -20 -62 -20 -18 -1 -33 -6
-33 -11 0 -7 -55 -9 -167 -6 -174 4 -253 12 -253 26 0 4 -20 16 -45 27 -25 10
-45 21 -45 26 0 4 -7 7 -16 7 -18 0 -81 64 -90 92 -3 10 -10 18 -15 18 -5 0
-9 9 -9 20 0 11 -4 20 -10 20 -5 0 -10 11 -10 25 0 14 -4 25 -10 25 -5 0 -10
25 -10 55 l0 55 -132 0 c-73 0 -139 -4 -147 -9 -10 -7 -11 -16 -3 -42 6 -19
14 -55 18 -81 3 -27 10 -48 15 -48 5 0 9 -11 9 -24 0 -14 5 -28 10 -31 6 -3
10 -15 10 -26 0 -10 5 -19 10 -19 6 0 10 -7 10 -15 0 -8 4 -15 9 -15 5 0 12
-9 16 -20 8 -24 89 -107 138 -140 20 -14 37 -28 37 -32 0 -5 9 -8 20 -8 11 0
20 -4 20 -10 0 -5 9 -10 20 -10 11 0 20 -4 20 -10 0 -5 11 -10 25 -10 14 0 25
-4 25 -9 0 -5 16 -12 35 -15 19 -4 35 -11 35 -16 0 -6 13 -10 29 -10 17 0 33
-4 36 -10 3 -5 44 -10 91 -10 49 0 84 -4 84 -10 0 -6 32 -10 75 -10 43 0 75 4
75 10 0 6 35 10 84 10 47 0 88 5 91 10 3 5 18 10 33 10 15 0 36 7 46 15 11 8
28 15 38 15 10 0 18 5 18 10 0 6 11 10 25 10 14 0 25 5 25 10 0 6 8 10 18 10
10 0 24 9 32 20 8 11 19 20 25 20 14 1 95 76 95 89 0 6 5 11 10 11 6 0 10 5
10 10 0 5 9 19 20 30 11 11 23 34 27 50 3 17 9 30 14 30 5 0 9 14 9 30 0 17 5
30 10 30 6 0 10 52 10 135 0 83 -4 135 -10 135 -5 0 -10 16 -10 35 0 19 -4 35
-10 35 -5 0 -10 7 -10 15 0 19 -27 63 -52 86 -10 9 -18 23 -18 30 0 8 -14 25
-32 39 -17 14 -37 31 -44 38 -7 6 -16 12 -21 12 -5 0 -15 9 -23 20 -8 11 -20
20 -28 20 -7 0 -23 9 -35 21 -12 11 -34 23 -49 26 -16 3 -28 9 -28 14 0 5 -9
9 -20 9 -11 0 -20 5 -20 10 0 6 -11 10 -25 10 -14 0 -25 5 -25 10 0 6 -9 10
-20 10 -17 0 -66 18 -112 41 -10 5 -29 9 -43 9 -14 0 -25 5 -25 10 0 6 -18 10
-40 10 -22 0 -40 5 -40 10 0 6 -11 10 -25 10 -14 0 -25 5 -25 10 0 6 -16 10
-35 10 -19 0 -35 5 -35 10 0 6 -7 10 -16 10 -8 0 -35 11 -60 25 -25 14 -50 25
-57 25 -7 0 -19 9 -27 20 -8 11 -18 20 -23 20 -4 0 -19 11 -32 25 -14 13 -25
28 -25 32 0 5 -9 15 -20 23 -11 8 -20 22 -20 32 0 9 -4 20 -10 23 -5 3 -10 42
-10 86 0 76 19 141 55 187 25 33 82 83 107 93 16 6 28 15 28 20 0 5 16 9 35 9
19 0 35 5 35 10 0 6 62 10 165 10 103 0 165 -4 165 -10 0 -5 14 -10 30 -10 17
0 30 -4 30 -10 0 -5 7 -10 17 -10 17 0 76 -41 104 -72 9 -10 21 -18 28 -18 6
0 11 -9 11 -19 0 -11 4 -21 8 -23 17 -7 54 -105 59 -157 3 -31 11 -59 17 -63
6 -4 68 -8 139 -8 l127 0 0 60 c0 33 -4 60 -10 60 -5 0 -10 14 -10 30 0 31 -2
38 -39 105 -12 22 -25 48 -28 58 -3 9 -9 17 -14 17 -5 0 -9 5 -9 10 0 27 -127
151 -185 180 -17 8 -32 18 -35 21 -10 12 -74 39 -92 39 -10 0 -18 5 -18 10 0
6 -18 10 -40 10 -22 0 -40 4 -40 9 0 4 -33 11 -72 14 -40 3 -95 8 -123 11 -27
2 -70 1 -95 -4z"/>
<path d="M17180 3410 c-25 -5 -66 -9 -92 -9 -27 -1 -48 -5 -48 -11 0 -5 -16
-10 -35 -10 -19 0 -35 -4 -35 -10 0 -5 -13 -10 -30 -10 -16 0 -30 -3 -30 -7 0
-5 -25 -21 -55 -38 -30 -16 -55 -33 -55 -37 0 -4 -7 -8 -16 -8 -21 0 -184
-168 -184 -190 0 -5 -4 -10 -10 -10 -5 0 -10 -9 -10 -20 0 -11 -4 -20 -10 -20
-5 0 -10 -7 -10 -15 0 -8 -4 -15 -10 -15 -5 0 -10 -9 -10 -20 0 -11 -4 -20
-10 -20 -5 0 -10 -9 -10 -19 0 -11 -7 -26 -15 -35 -8 -8 -15 -24 -15 -35 0
-12 -4 -21 -10 -21 -5 0 -10 -18 -10 -40 0 -22 -4 -40 -10 -40 -5 0 -10 -20
-10 -44 0 -27 -5 -46 -12 -48 -10 -4 -13 -80 -13 -338 0 -258 3 -334 13 -337
7 -3 12 -22 12 -49 0 -24 5 -44 10 -44 6 0 10 -16 10 -35 0 -19 5 -35 10 -35
6 0 10 -9 10 -19 0 -21 30 -84 43 -89 4 -2 7 -12 7 -23 0 -10 5 -19 10 -19 6
0 10 -9 10 -20 0 -11 5 -20 10 -20 6 0 10 -5 10 -11 0 -6 6 -16 13 -24 6 -7
21 -25 32 -41 30 -43 145 -154 159 -154 6 0 18 -9 26 -20 8 -11 22 -20 32 -20
9 0 20 -4 23 -10 3 -5 15 -10 25 -10 10 0 20 -3 22 -7 4 -10 60 -36 109 -52
19 -6 61 -11 92 -11 31 0 57 -4 57 -10 0 -6 33 -10 80 -10 47 0 80 4 80 10 0
6 32 10 75 10 43 0 75 4 75 10 0 6 14 10 31 10 17 0 37 7 45 15 9 8 24 15 35
15 10 0 19 5 19 10 0 6 10 10 23 10 12 0 29 9 37 20 8 11 22 20 32 20 10 0 18
5 18 10 0 6 5 10 10 10 19 0 150 129 150 147 0 5 9 15 20 23 11 8 20 22 20 32
0 10 4 18 9 18 5 0 12 11 15 25 4 14 11 25 16 25 6 0 10 9 10 20 0 11 5 20 10
20 6 0 10 9 10 20 0 11 5 20 10 20 6 0 10 16 10 35 0 19 5 35 10 35 6 0 10 10
10 23 0 13 4 27 8 32 5 6 17 51 28 100 16 77 19 130 18 355 -1 168 -6 283 -13
315 -7 28 -16 68 -21 90 -18 82 -23 95 -31 95 -5 0 -9 16 -9 35 0 19 -4 35
-10 35 -5 0 -10 9 -10 20 0 11 -3 20 -7 20 -5 0 -16 20 -26 45 -11 25 -23 45
-28 45 -5 0 -9 7 -9 15 0 8 -4 15 -10 15 -5 0 -10 7 -10 15 0 8 -4 15 -10 15
-5 0 -10 4 -10 10 0 13 -137 150 -150 150 -5 0 -10 5 -10 10 0 6 -9 10 -20 10
-11 0 -20 3 -20 8 0 10 -58 42 -76 42 -8 0 -14 5 -14 10 0 6 -13 10 -30 10
-16 0 -30 5 -30 10 0 6 -16 10 -35 10 -19 0 -35 4 -35 9 0 4 -35 11 -77 15
-43 3 -96 8 -118 10 -22 3 -60 1 -85 -4z m150 -240 c0 -5 23 -10 50 -10 28 0
50 -4 50 -10 0 -5 11 -10 25 -10 14 0 25 -4 25 -10 0 -5 8 -10 18 -10 16 0 48
-22 99 -70 12 -11 27 -20 33 -20 5 0 10 -7 10 -15 0 -8 5 -15 10 -15 6 0 10
-7 10 -15 0 -8 5 -15 10 -15 6 0 10 -7 10 -15 0 -8 4 -15 9 -15 5 0 17 -20 27
-45 9 -25 21 -45 25 -45 5 0 9 -9 9 -20 0 -11 5 -20 10 -20 6 0 10 -20 10 -45
0 -25 5 -45 10 -45 6 0 10 -25 10 -55 0 -30 5 -55 10 -55 6 0 10 -95 10 -265
0 -170 -4 -265 -10 -265 -6 0 -10 -27 -10 -60 0 -33 -4 -60 -10 -60 -5 0 -10
-18 -10 -40 0 -22 -4 -40 -10 -40 -5 0 -10 -9 -10 -19 0 -11 -7 -26 -15 -35
-8 -8 -15 -21 -15 -28 0 -8 -9 -24 -20 -36 -11 -12 -20 -26 -20 -32 0 -14
-135 -150 -149 -150 -5 0 -26 -10 -47 -22 -48 -28 -106 -39 -231 -45 -69 -3
-103 -1 -103 6 0 6 -15 11 -34 11 -33 0 -157 61 -164 81 -2 5 -10 9 -19 9 -14
0 -43 23 -43 35 0 3 -10 17 -22 30 -38 40 -48 54 -48 65 0 5 -4 10 -10 10 -5
0 -10 9 -10 20 0 11 -4 20 -10 20 -5 0 -10 9 -10 20 0 11 -4 20 -9 20 -5 0
-11 12 -14 28 -2 15 -14 52 -26 82 -12 31 -21 78 -21 107 0 29 -4 53 -10 53
-6 0 -10 87 -10 240 0 153 4 240 10 240 6 0 10 21 10 46 0 46 47 206 62 212 5
2 8 12 8 23 0 10 5 19 10 19 6 0 10 7 10 15 0 8 5 15 10 15 6 0 10 7 10 16 0
8 16 32 35 52 19 20 35 43 35 50 0 6 8 12 18 12 9 0 25 11 35 24 10 13 32 30
48 36 16 7 29 16 29 21 0 5 14 9 30 9 17 0 30 5 30 10 0 6 20 10 45 10 25 0
45 5 45 10 0 6 33 10 80 10 47 0 80 -4 80 -10z"/>
<path d="M23195 3410 c-27 -5 -71 -9 -97 -9 -27 -1 -48 -5 -48 -11 0 -5 -16
-10 -35 -10 -19 0 -35 -4 -35 -10 0 -5 -13 -10 -30 -10 -16 0 -30 -3 -30 -7 0
-5 -20 -16 -45 -26 -25 -11 -45 -23 -45 -28 0 -5 -7 -9 -15 -9 -8 0 -15 -4
-15 -10 0 -5 -7 -10 -15 -10 -8 0 -15 -4 -15 -10 0 -5 -4 -10 -10 -10 -13 0
-130 -117 -130 -130 0 -5 -4 -10 -10 -10 -5 0 -10 -6 -10 -12 0 -7 -11 -26
-25 -42 -14 -16 -25 -35 -25 -43 0 -7 -4 -13 -10 -13 -5 0 -10 -9 -10 -20 0
-11 -4 -20 -10 -20 -5 0 -10 -9 -10 -19 0 -11 -4 -23 -10 -26 -5 -3 -10 -15
-10 -26 0 -10 -4 -27 -10 -37 -14 -26 -40 -126 -40 -155 0 -14 -4 -29 -10 -32
-13 -8 -14 -596 -1 -639 14 -49 52 -198 58 -228 3 -16 9 -28 14 -28 5 0 9 -9
9 -20 0 -11 5 -20 10 -20 6 0 10 -9 10 -20 0 -11 5 -20 10 -20 6 0 10 -7 10
-16 0 -14 12 -32 60 -91 6 -7 10 -15 10 -18 0 -19 157 -165 177 -165 7 0 13
-4 13 -10 0 -5 7 -10 15 -10 8 0 15 -4 15 -10 0 -5 9 -10 19 -10 11 0 22 -4
26 -9 3 -5 19 -12 35 -16 17 -4 30 -11 30 -16 0 -5 14 -9 30 -9 17 0 30 -4 30
-10 0 -6 33 -10 80 -10 47 0 80 -4 80 -10 0 -6 30 -10 70 -10 40 0 70 4 70 10
0 6 35 10 85 10 50 0 85 4 85 10 0 6 12 10 28 10 15 0 36 7 46 15 11 8 28 15
38 15 10 0 18 5 18 10 0 6 9 10 20 10 11 0 20 5 20 10 0 6 9 10 20 10 11 0 20
5 20 10 0 6 7 10 15 10 8 0 15 5 15 10 0 6 6 10 14 10 7 0 22 11 32 25 10 14
22 25 27 25 12 0 57 47 57 60 0 5 5 10 10 10 6 0 10 6 10 13 0 10 13 28 60 84
5 7 10 21 10 33 0 11 5 20 10 20 6 0 10 14 10 30 0 17 5 30 10 30 6 0 10 9 10
21 0 11 4 28 10 38 12 24 29 132 23 148 -4 10 -40 13 -139 13 l-134 0 0 -35
c0 -19 -4 -35 -10 -35 -5 0 -10 -18 -10 -40 0 -22 -4 -40 -10 -40 -5 0 -10
-11 -10 -24 0 -26 -30 -86 -42 -86 -5 0 -8 -9 -8 -20 0 -11 -4 -20 -10 -20 -5
0 -10 -5 -10 -10 0 -14 -46 -60 -60 -60 -5 0 -10 -4 -10 -10 0 -5 -5 -10 -10
-10 -6 0 -27 -11 -48 -24 -51 -32 -86 -38 -244 -43 -109 -3 -147 -1 -185 12
-55 19 -111 51 -134 77 -9 10 -19 18 -23 18 -10 0 -56 47 -56 57 0 5 -9 15
-20 23 -11 8 -20 22 -20 32 0 10 -3 18 -8 18 -4 0 -16 17 -26 38 -10 20 -22
45 -27 54 -5 10 -9 29 -9 43 0 14 -4 25 -9 25 -11 0 -19 47 -32 190 -12 137
-4 593 11 598 6 2 10 21 10 43 0 21 5 39 10 39 6 0 10 9 10 19 0 26 50 141 61
141 5 0 9 7 9 15 0 8 5 15 10 15 6 0 10 7 10 15 0 8 5 15 10 15 6 0 10 5 10
11 0 11 25 39 35 39 3 0 17 10 30 23 38 36 48 42 83 57 17 8 32 18 32 22 0 5
16 8 35 8 19 0 35 5 35 10 0 6 57 10 150 10 93 0 150 -4 150 -10 0 -5 16 -10
35 -10 19 0 35 -4 35 -10 0 -5 9 -10 20 -10 11 0 20 -4 20 -8 0 -4 12 -15 28
-24 45 -28 82 -64 82 -82 0 -9 5 -16 10 -16 6 0 10 -7 10 -15 0 -8 4 -15 8
-15 11 0 42 -66 42 -90 0 -11 5 -20 10 -20 6 0 10 -20 10 -45 0 -25 5 -45 10
-45 6 0 10 -13 10 -30 l0 -30 141 0 141 0 -6 28 c-3 15 -8 51 -11 79 -4 29
-11 55 -16 59 -5 3 -9 16 -9 30 0 13 -4 24 -10 24 -5 0 -10 14 -10 30 0 17 -4
30 -10 30 -5 0 -10 11 -10 25 0 14 -3 25 -8 25 -4 0 -16 16 -26 35 -11 19 -23
35 -28 35 -4 0 -8 7 -8 15 0 18 -113 135 -131 135 -6 0 -19 8 -28 19 -9 10
-26 21 -38 25 -13 4 -23 12 -23 17 0 5 -9 9 -20 9 -11 0 -20 5 -20 10 0 6 -16
10 -35 10 -19 0 -35 5 -35 10 0 6 -13 10 -30 10 -16 0 -30 4 -30 9 0 4 -39 11
-87 15 -48 3 -103 8 -123 10 -19 2 -57 0 -85 -4z"/>
<path d="M46135 3410 c-27 -5 -71 -9 -97 -9 -27 -1 -48 -5 -48 -11 0 -5 -13
-10 -30 -10 -16 0 -30 -4 -30 -10 0 -5 -10 -10 -22 -10 -22 0 -150 -67 -156
-82 -2 -4 -8 -8 -13 -8 -21 0 -189 -169 -189 -190 0 -5 -4 -10 -10 -10 -5 0
-10 -9 -10 -20 0 -11 -3 -20 -7 -20 -11 0 -43 -58 -43 -76 0 -8 -4 -14 -10
-14 -5 0 -10 -11 -10 -25 0 -14 -4 -25 -10 -25 -5 0 -10 -13 -10 -30 0 -16 -4
-30 -9 -30 -5 0 -11 -15 -14 -32 -16 -102 -31 -168 -38 -168 -5 0 -9 -120 -9
-267 0 -251 2 -273 26 -377 14 -61 30 -119 35 -128 5 -10 9 -27 9 -38 0 -11 5
-20 10 -20 6 0 10 -11 10 -25 0 -14 5 -25 10 -25 6 0 10 -9 10 -20 0 -11 4
-20 8 -20 5 0 17 -19 27 -42 10 -24 27 -50 37 -59 10 -9 18 -19 18 -23 0 -21
149 -166 170 -166 6 0 10 -4 10 -10 0 -5 8 -10 18 -10 10 0 24 -9 32 -20 8
-11 25 -20 37 -20 13 0 23 -4 23 -10 0 -5 8 -10 18 -10 10 0 27 -7 38 -15 10
-8 31 -15 47 -15 15 0 27 -4 27 -10 0 -6 32 -10 75 -10 43 0 75 -4 75 -10 0
-6 30 -10 70 -10 40 0 70 4 70 10 0 6 32 10 75 10 43 0 75 4 75 10 0 6 12 10
28 10 15 0 36 7 46 15 11 8 28 15 38 15 10 0 18 5 18 10 0 6 6 10 13 10 18 0
67 24 67 33 0 4 7 7 15 7 8 0 15 4 15 9 0 5 8 12 18 15 25 8 125 105 147 144
11 17 23 32 27 32 4 0 8 7 8 15 0 8 5 15 10 15 6 0 10 9 10 20 0 11 5 20 10
20 6 0 10 7 10 16 0 8 7 22 15 31 9 8 21 35 27 59 7 24 16 44 20 44 4 0 8 11
8 25 0 14 5 25 10 25 6 0 10 23 10 50 0 28 4 50 9 50 9 0 12 23 31 238 12 147
-10 512 -31 512 -5 0 -9 20 -9 45 0 25 -4 45 -10 45 -5 0 -10 11 -10 23 0 13
-6 37 -13 53 -45 100 -63 134 -69 134 -5 0 -8 7 -8 15 0 8 -4 15 -10 15 -5 0
-10 9 -10 20 0 11 -4 20 -8 20 -4 0 -16 15 -27 33 -23 39 -114 127 -132 127
-5 0 -15 9 -23 20 -8 11 -22 20 -32 20 -10 0 -18 3 -18 8 0 10 -58 42 -76 42
-8 0 -14 5 -14 10 0 6 -11 10 -25 10 -14 0 -25 5 -25 10 0 6 -16 10 -35 10
-19 0 -35 4 -35 9 0 4 -37 11 -82 14 -46 4 -99 8 -118 11 -19 2 -57 0 -85 -4z
m155 -240 c0 -5 20 -10 45 -10 25 0 45 -4 45 -10 0 -5 11 -10 25 -10 14 0 25
-4 25 -10 0 -5 7 -10 15 -10 9 0 28 -8 43 -17 39 -26 162 -154 162 -169 0 -8
5 -14 10 -14 6 0 10 -11 10 -25 0 -14 5 -25 10 -25 6 0 10 -9 10 -20 0 -11 4
-20 8 -20 8 0 42 -123 42 -152 0 -10 5 -18 10 -18 14 0 7 -609 -7 -670 -19
-81 -43 -149 -58 -164 -8 -8 -15 -24 -15 -35 0 -12 -4 -21 -10 -21 -5 0 -10
-7 -10 -15 0 -18 -68 -96 -125 -143 -42 -35 -140 -82 -171 -82 -19 0 -34 -4
-34 -10 0 -6 -43 -10 -110 -10 -67 0 -110 4 -110 10 0 6 -16 10 -35 10 -21 0
-52 11 -75 25 -22 14 -45 25 -51 25 -6 0 -24 13 -39 30 -15 16 -33 30 -38 30
-6 0 -21 15 -33 33 -13 17 -31 39 -41 48 -10 9 -18 24 -18 33 0 9 -4 16 -9 16
-5 0 -12 11 -15 25 -4 14 -11 25 -16 25 -6 0 -10 9 -10 19 0 11 -4 23 -10 26
-5 3 -10 19 -10 36 0 16 -4 29 -10 29 -5 0 -10 16 -10 35 0 19 -4 35 -9 35
-20 0 -41 524 -21 544 5 5 10 41 10 78 0 39 4 68 10 68 6 0 10 16 10 35 0 19
5 35 10 35 6 0 10 16 10 35 0 19 3 35 8 35 4 0 16 20 27 45 11 25 23 45 27 45
5 0 8 7 8 15 0 8 8 24 18 36 37 45 70 79 77 79 4 0 16 9 25 20 20 23 104 70
126 70 7 0 14 5 14 10 0 6 20 10 45 10 25 0 45 5 45 10 0 6 35 10 85 10 50 0
85 -4 85 -10z"/>
<path d="M872 2348 l3 -1033 663 -3 662 -2 0 94 c0 52 -3 101 -6 110 -5 14
-61 16 -520 16 l-514 0 0 365 0 365 436 0 c364 0 438 2 450 14 20 20 20 192 0
212 -12 12 -86 14 -450 14 l-436 0 0 330 0 330 515 0 515 0 0 110 0 110 -660
0 -660 0 2 -1032z"/>
<path d="M7380 3270 l0 -110 335 0 335 0 0 -925 0 -925 140 0 140 0 0 925 0
925 330 0 330 0 0 110 0 110 -805 0 -805 0 0 -110z"/>
<path d="M10950 2345 l0 -1035 140 0 140 0 0 1035 0 1035 -140 0 -140 0 0
-1035z"/>
<path d="M13370 2345 l0 -1035 633 2 632 3 3 94 c2 60 -1 98 -9 107 -9 12 -93
14 -495 14 l-484 0 0 925 0 925 -140 0 -140 0 0 -1035z"/>
<path d="M26040 2345 l0 -1035 140 0 140 0 2 418 3 417 243 3 c237 2 242 2
242 -18 0 -11 5 -20 10 -20 6 0 10 -7 10 -15 0 -8 5 -15 10 -15 6 0 10 -9 10
-20 0 -11 3 -20 8 -20 4 0 16 -20 27 -45 11 -25 23 -45 27 -45 5 0 8 -9 8 -20
0 -11 5 -20 10 -20 6 0 10 -9 10 -19 0 -11 3 -21 8 -23 4 -1 16 -21 27 -42 35
-68 40 -76 47 -76 5 0 8 -9 8 -20 0 -11 5 -20 10 -20 6 0 10 -9 10 -20 0 -11
3 -20 8 -20 4 0 15 -20 25 -45 11 -25 23 -45 28 -45 5 0 9 -9 9 -20 0 -11 5
-20 10 -20 6 0 10 -11 10 -25 0 -14 5 -25 10 -25 6 0 10 -7 10 -15 0 -8 5 -15
10 -15 6 0 10 -9 10 -20 0 -11 4 -20 8 -20 5 0 17 -18 27 -40 10 -22 22 -40
27 -40 4 0 8 -7 8 -15 0 -13 23 -15 150 -15 83 0 150 4 150 8 0 15 -25 62 -32
62 -5 0 -8 9 -8 20 0 11 -4 20 -10 20 -5 0 -10 9 -10 20 0 11 -4 20 -10 20 -5
0 -10 7 -10 15 0 8 -3 15 -8 15 -4 0 -16 20 -27 45 -11 25 -23 45 -27 45 -5 0
-8 9 -8 20 0 11 -4 20 -10 20 -5 0 -10 9 -10 20 0 11 -4 20 -10 20 -5 0 -10 6
-10 14 0 8 -4 16 -8 18 -11 4 -62 98 -62 114 0 8 -4 14 -10 14 -5 0 -10 9 -10
20 0 11 -4 20 -10 20 -5 0 -10 7 -10 15 0 8 -4 15 -8 15 -4 0 -21 27 -37 60
-17 33 -33 60 -37 60 -5 0 -8 7 -8 15 0 8 -4 15 -10 15 -5 0 -10 11 -10 25 0
14 -4 25 -10 25 -5 0 -10 5 -10 10 0 6 -11 28 -25 50 -14 22 -25 44 -25 49 0
5 20 17 45 27 25 9 45 21 45 25 0 5 9 9 20 9 11 0 20 5 20 10 0 6 5 10 10 10
14 0 150 135 150 149 0 6 5 11 10 11 6 0 10 9 10 20 0 11 3 20 8 20 8 0 22 29
48 100 25 68 25 282 -1 378 -10 39 -22 72 -27 72 -4 0 -8 9 -8 20 0 11 -4 20
-10 20 -5 0 -10 9 -10 20 0 21 -15 40 -77 103 -56 55 -82 77 -93 77 -5 0 -10
5 -10 10 0 6 -9 10 -20 10 -11 0 -20 5 -20 10 0 6 -8 10 -18 10 -10 0 -27 7
-38 15 -10 8 -31 15 -46 15 -16 0 -28 5 -28 10 0 6 -20 10 -45 10 -25 0 -45 5
-45 10 0 7 -157 10 -450 10 l-450 0 0 -1035z m810 805 c0 -5 20 -10 45 -10 25
0 45 -4 45 -10 0 -5 7 -10 15 -10 19 0 63 -27 86 -52 9 -10 23 -18 30 -18 8 0
23 -16 33 -35 11 -19 23 -35 28 -35 4 0 8 -9 8 -20 0 -11 5 -20 10 -20 6 0 10
-16 10 -35 0 -19 5 -35 10 -35 6 0 10 -42 10 -105 0 -63 -4 -105 -10 -105 -5
0 -10 -16 -10 -35 0 -19 -4 -35 -10 -35 -5 0 -10 -7 -10 -16 0 -19 -113 -130
-141 -139 -10 -4 -19 -11 -19 -16 0 -5 -13 -9 -30 -9 -16 0 -30 -4 -30 -10 0
-5 -20 -10 -45 -10 -25 0 -45 -4 -45 -10 0 -6 -92 -10 -255 -10 l-255 0 0 395
0 395 265 0 c170 0 265 -4 265 -10z"/>
<path d="M29470 2351 c0 -929 2 -1029 16 -1035 20 -8 1288 -8 1308 0 22 8 23
178 2 200 -12 12 -96 14 -525 14 l-511 0 0 365 0 365 450 0 450 0 0 104 c0 57
-3 111 -6 120 -5 14 -54 16 -450 16 l-444 0 0 330 0 330 515 0 515 0 0 110 0
110 -660 0 -660 0 0 -1029z"/>
<path d="M33364 3355 c-3 -14 -10 -25 -15 -25 -5 0 -9 -13 -9 -30 0 -16 -4
-30 -10 -30 -5 0 -10 -11 -10 -24 0 -14 -4 -28 -10 -31 -5 -3 -10 -17 -10 -31
0 -13 -4 -24 -8 -24 -4 0 -14 -20 -21 -46 -7 -25 -20 -51 -27 -59 -8 -7 -14
-25 -14 -39 0 -14 -4 -26 -10 -26 -5 0 -10 -16 -10 -35 0 -19 -4 -35 -10 -35
-5 0 -10 -9 -10 -19 0 -11 -4 -22 -9 -25 -5 -4 -17 -32 -27 -64 -9 -31 -21
-61 -26 -66 -4 -6 -8 -18 -8 -28 0 -10 -4 -18 -10 -18 -5 0 -10 -13 -10 -29 0
-17 -4 -33 -10 -36 -5 -3 -10 -15 -10 -26 0 -10 -4 -19 -8 -19 -5 0 -17 -29
-27 -65 -11 -36 -23 -65 -27 -65 -4 0 -8 -11 -8 -25 0 -14 -4 -25 -10 -25 -5
0 -10 -13 -10 -30 0 -16 -4 -30 -10 -30 -5 0 -10 -8 -10 -18 0 -10 -11 -42
-25 -70 -14 -29 -25 -61 -25 -72 0 -11 -4 -20 -10 -20 -5 0 -10 -11 -10 -25 0
-14 -4 -25 -10 -25 -5 0 -10 -11 -10 -24 0 -14 -4 -28 -10 -31 -5 -3 -10 -14
-10 -24 0 -9 -11 -41 -25 -69 -14 -29 -25 -58 -25 -66 0 -8 -4 -18 -10 -21 -5
-3 -10 -15 -10 -26 0 -10 -4 -19 -10 -19 -5 0 -10 -13 -10 -30 0 -16 -4 -30
-10 -30 -5 0 -10 -9 -10 -20 0 -11 -11 -45 -25 -76 -14 -31 -25 -63 -25 -70 0
-8 -4 -14 -10 -14 -5 0 -10 -13 -10 -30 0 -16 -4 -30 -10 -30 -5 0 -10 -11
-10 -25 0 -14 -4 -25 -10 -25 -5 0 -10 -8 -10 -18 0 -17 -17 -60 -41 -104 -5
-10 -9 -27 -9 -38 0 -19 6 -20 133 -20 141 0 157 5 157 47 0 13 5 23 10 23 6
0 10 9 10 19 0 11 5 23 10 26 6 3 10 17 10 30 0 26 30 98 43 103 4 2 7 17 7
33 0 16 5 29 10 29 6 0 10 16 10 35 0 19 5 35 10 35 6 0 10 9 10 20 0 11 5 20
10 20 6 0 10 7 10 15 0 8 6 33 12 55 l13 40 435 0 435 0 19 -37 c10 -21 22
-46 27 -55 5 -10 9 -29 9 -43 0 -14 5 -25 10 -25 6 0 10 -13 10 -30 0 -16 4
-30 8 -30 4 0 17 -29 27 -65 11 -36 23 -65 28 -65 4 0 7 -11 7 -25 0 -14 5
-25 10 -25 6 0 10 -13 10 -30 0 -16 4 -30 9 -30 6 0 11 -15 13 -32 l3 -33 143
-3 c164 -3 162 -4 117 90 -14 28 -25 60 -25 70 0 10 -4 18 -10 18 -5 0 -10 14
-10 30 0 17 -4 30 -10 30 -5 0 -10 11 -10 25 0 14 -4 25 -8 25 -4 0 -17 29
-27 65 -11 36 -23 65 -27 65 -5 0 -8 9 -8 19 0 11 -4 23 -10 26 -5 3 -10 19
-10 36 0 16 -4 29 -10 29 -5 0 -10 11 -10 25 0 14 -4 25 -10 25 -5 0 -10 7
-10 15 0 13 -20 65 -41 107 -5 10 -9 25 -9 33 0 8 -4 15 -10 15 -5 0 -10 14
-10 30 0 17 -4 30 -10 30 -5 0 -10 9 -10 20 0 11 -4 28 -9 38 -21 42 -41 94
-41 107 0 8 -4 15 -10 15 -5 0 -10 11 -10 25 0 14 -4 25 -10 25 -5 0 -10 14
-10 30 0 17 -4 30 -10 30 -5 0 -10 11 -10 24 0 14 -4 28 -10 31 -5 3 -10 17
-10 31 0 13 -4 24 -10 24 -5 0 -12 16 -16 35 -3 19 -10 35 -15 35 -5 0 -9 11
-9 24 0 14 -4 28 -10 31 -5 3 -10 17 -10 31 0 13 -4 24 -10 24 -5 0 -10 11
-10 24 0 14 -4 28 -10 31 -5 3 -10 17 -10 31 0 13 -4 24 -10 24 -5 0 -13 12
-16 28 -4 15 -10 32 -14 37 -4 6 -13 31 -21 58 -7 26 -17 47 -21 47 -4 0 -8
11 -8 25 0 14 -4 25 -10 25 -5 0 -10 12 -10 28 0 15 -7 36 -15 46 -8 11 -15
28 -15 38 0 10 -4 18 -10 18 -5 0 -10 11 -10 24 0 14 -4 28 -10 31 -5 3 -10
17 -10 31 0 13 -4 24 -10 24 -5 0 -10 11 -10 24 0 14 -4 28 -10 31 -5 3 -10
17 -10 31 l0 24 -130 0 -130 0 -6 -25z m154 -383 c2 -17 7 -32 13 -32 5 0 9
-11 9 -25 0 -14 5 -25 10 -25 6 0 10 -13 10 -30 0 -16 5 -30 10 -30 6 0 10 -8
10 -18 0 -10 11 -42 25 -70 14 -29 25 -63 25 -77 0 -14 5 -25 10 -25 6 0 10
-11 10 -25 0 -14 5 -25 10 -25 6 0 10 -11 10 -24 0 -14 5 -28 10 -31 6 -3 10
-15 10 -26 0 -10 11 -42 25 -71 14 -28 25 -60 25 -69 0 -10 5 -21 10 -24 6 -3
10 -19 10 -36 0 -16 5 -29 10 -29 6 0 10 -9 10 -19 0 -11 5 -23 10 -26 6 -3
10 -19 10 -36 0 -16 5 -29 10 -29 6 0 10 -8 10 -18 0 -10 7 -27 15 -38 8 -10
15 -22 15 -26 0 -5 -158 -8 -351 -8 -329 0 -350 1 -345 18 3 9 8 29 12 45 3
15 10 27 15 27 5 0 9 11 9 25 0 14 5 25 10 25 6 0 10 14 10 30 0 17 5 30 10
30 6 0 10 13 10 28 0 15 4 32 8 38 4 5 14 27 21 49 14 44 37 100 52 127 5 10
9 29 9 43 0 14 5 25 10 25 6 0 10 14 10 30 0 17 5 30 10 30 6 0 10 8 10 18 0
10 4 22 8 27 5 6 17 38 28 73 10 34 22 62 26 62 5 0 8 14 8 30 0 17 5 30 10
30 6 0 10 10 10 22 0 12 8 39 17 60 21 47 47 47 51 0z"/>
<path d="M35980 3270 l0 -110 330 0 330 0 0 -925 0 -925 135 0 135 0 0 909 c0
500 3 916 6 925 5 14 44 16 335 16 l329 0 0 110 0 110 -800 0 -800 0 0 -110z"/>
<path d="M39540 2345 l0 -1035 145 0 145 0 0 1035 0 1035 -145 0 -145 0 0
-1035z"/>
<path d="M41765 3358 c4 -13 11 -27 16 -32 5 -6 9 -20 9 -33 0 -13 5 -23 10
-23 6 0 10 -13 10 -30 0 -16 5 -30 10 -30 6 0 10 -11 10 -25 0 -14 4 -25 8
-25 4 0 17 -29 27 -65 11 -36 23 -65 28 -65 4 0 7 -11 7 -25 0 -14 5 -25 10
-25 6 0 10 -13 10 -30 0 -16 5 -30 10 -30 6 0 10 -13 10 -29 0 -17 5 -33 10
-36 6 -3 10 -15 10 -26 0 -10 4 -19 8 -19 5 0 17 -29 27 -65 11 -36 23 -65 27
-65 4 0 8 -11 8 -25 0 -14 5 -25 10 -25 6 0 10 -11 10 -25 0 -14 4 -33 9 -43
20 -37 61 -144 61 -158 0 -8 5 -14 10 -14 6 0 10 -13 10 -30 0 -16 5 -30 10
-30 6 0 10 -8 10 -17 0 -22 25 -93 50 -146 11 -23 20 -51 20 -64 0 -13 5 -23
10 -23 6 0 10 -13 10 -30 0 -16 5 -30 10 -30 6 0 10 -11 10 -25 0 -14 5 -25
10 -25 6 0 10 -7 10 -15 0 -8 11 -40 25 -71 14 -31 25 -65 25 -75 0 -11 5 -19
10 -19 6 0 10 -13 10 -30 0 -16 5 -30 10 -30 6 0 10 -10 10 -23 0 -13 4 -27 9
-33 5 -5 16 -35 26 -66 10 -32 22 -58 26 -58 5 0 9 -13 9 -30 0 -16 5 -30 10
-30 6 0 10 -13 10 -30 0 -16 5 -30 10 -30 6 0 10 -11 10 -25 0 -14 4 -25 8
-25 4 0 12 -15 17 -33 l10 -32 128 -3 c108 -2 127 0 127 13 0 8 5 15 10 15 6
0 10 14 10 30 0 17 5 30 10 30 6 0 10 13 10 29 0 17 5 33 10 36 6 3 10 15 10
26 0 10 3 19 8 19 4 0 16 29 27 65 10 36 23 65 27 65 4 0 8 11 8 25 0 14 5 25
10 25 6 0 10 11 10 25 0 14 4 33 9 43 5 9 17 37 26 62 9 25 20 52 24 60 4 8
14 36 22 63 7 26 17 47 21 47 4 0 8 8 8 18 0 22 48 154 60 166 6 6 10 20 10
32 0 13 5 26 10 29 6 3 10 19 10 36 0 16 5 29 10 29 6 0 10 8 10 18 0 10 4 22
8 28 4 5 14 27 21 49 7 22 19 54 26 70 31 76 35 87 35 105 0 11 5 20 10 20 6
0 10 8 10 18 0 10 8 36 19 58 10 21 22 54 26 72 3 17 11 32 16 32 5 0 9 14 9
30 0 17 5 30 10 30 6 0 10 14 10 30 0 17 5 30 10 30 6 0 10 11 10 25 0 14 4
25 8 25 4 0 17 29 27 65 11 36 23 65 28 65 4 0 7 11 7 25 0 14 5 25 10 25 6 0
10 14 10 30 0 17 5 30 10 30 6 0 10 11 10 25 0 14 7 36 15 48 11 18 44 109 45
125 0 1 -66 2 -147 2 l-148 0 -12 -27 c-7 -15 -13 -35 -13 -44 0 -10 -3 -19
-7 -21 -10 -4 -63 -159 -63 -182 0 -9 -4 -16 -10 -16 -5 0 -10 -13 -10 -30 0
-16 -4 -30 -10 -30 -5 0 -10 -13 -10 -29 0 -17 -4 -32 -9 -35 -10 -7 -41 -97
-41 -120 0 -9 -4 -16 -10 -16 -5 0 -10 -13 -10 -30 0 -16 -4 -30 -10 -30 -5 0
-10 -11 -10 -25 0 -14 -4 -25 -10 -25 -5 0 -10 -11 -10 -25 0 -13 -11 -50 -25
-81 -14 -31 -25 -65 -25 -75 0 -11 -4 -19 -10 -19 -5 0 -10 -13 -10 -30 0 -16
-4 -30 -10 -30 -5 0 -10 -13 -10 -29 0 -17 -4 -33 -10 -36 -5 -3 -10 -17 -10
-30 0 -13 -4 -27 -10 -30 -5 -3 -10 -15 -10 -27 0 -11 -7 -34 -16 -51 -32 -61
-34 -67 -34 -97 0 -16 -4 -30 -10 -30 -5 0 -10 -11 -10 -25 0 -14 -4 -25 -10
-25 -5 0 -10 -11 -10 -25 0 -14 -4 -33 -9 -43 -5 -9 -17 -37 -26 -62 -9 -25
-21 -53 -26 -62 -5 -10 -9 -29 -9 -43 0 -14 -4 -25 -10 -25 -5 0 -10 -13 -10
-29 0 -17 -4 -33 -10 -36 -5 -3 -10 -15 -10 -26 0 -28 -25 -23 -39 9 -8 15
-17 35 -22 44 -5 10 -9 27 -9 38 0 11 -4 20 -10 20 -5 0 -10 16 -10 35 0 19
-4 35 -10 35 -5 0 -10 10 -10 23 0 13 -4 27 -9 32 -5 6 -16 37 -26 70 -10 33
-22 64 -27 70 -4 5 -8 22 -8 37 0 15 -4 28 -10 28 -5 0 -10 14 -10 30 0 17 -4
30 -10 30 -5 0 -10 8 -10 19 0 10 -11 44 -25 75 -14 31 -25 68 -25 81 0 14 -4
25 -10 25 -5 0 -10 11 -10 25 0 14 -4 25 -10 25 -5 0 -10 16 -10 35 0 19 -4
35 -10 35 -5 0 -10 14 -10 30 0 17 -4 30 -9 30 -5 0 -17 29 -27 65 -10 36 -22
65 -26 65 -5 0 -8 16 -8 35 0 19 -4 35 -10 35 -5 0 -10 14 -10 30 0 17 -4 30
-10 30 -5 0 -10 9 -10 21 0 11 -5 29 -11 41 -18 34 -59 152 -59 170 0 10 -4
18 -10 18 -5 0 -10 14 -10 30 0 17 -4 30 -10 30 -5 0 -10 13 -10 29 0 17 -4
33 -10 36 -5 3 -10 14 -10 23 0 9 -7 30 -15 46 -8 15 -15 37 -15 47 0 18 -10
19 -156 19 l-155 0 6 -22z"/>
</g>
</svg>
