<svg width="14" height="14" viewBox="0 0 14 14" fill="none" xmlns="http://www.w3.org/2000/svg">
<path fill-rule="evenodd" clip-rule="evenodd" d="M5.6875 10.5C8.34537 10.5 10.5 8.34537 10.5 5.6875C10.5 3.02963 8.34537 0.875 5.6875 0.875C3.02963 0.875 0.875 3.02963 0.875 5.6875C0.875 8.34537 3.02963 10.5 5.6875 10.5ZM11.375 5.6875C11.375 8.82862 8.82862 11.375 5.6875 11.375C2.54638 11.375 0 8.82862 0 5.6875C0 2.54638 2.54638 0 5.6875 0C8.82862 0 11.375 2.54638 11.375 5.6875Z" fill="#F7D4CD"/>
<path d="M9.0509 10.2744C9.07671 10.3094 9.10545 10.3429 9.13713 10.3746L12.5063 13.7437C12.848 14.0854 13.402 14.0854 13.7437 13.7437C14.0854 13.402 14.0854 12.848 13.7437 12.5063L10.3746 9.13713C10.3429 9.10545 10.3094 9.07671 10.2744 9.0509C9.93115 9.51821 9.51821 9.93115 9.0509 10.2744Z" fill="#F7D4CD"/>
</svg>
